<?xml version="1.0" encoding="UTF-8"?>
<svg width="124px" height="32px" viewBox="0 0 124 32" version="1.1" xmlns="http://www.w3.org/2000/svg" xmlns:xlink="http://www.w3.org/1999/xlink">
    <!-- Generator: Sketch 45.2 (43514) - http://www.bohemiancoding.com/sketch -->
    <title>logo</title>
    <desc>Created with Sketch.</desc>
    <defs>
        <polygon id="path-1" points="0 31.7809778 123.941438 31.7809778 123.941438 0 0 0"></polygon>
    </defs>
    <g id="Symbols" stroke="none" stroke-width="1" fill="none" fill-rule="evenodd">
        <g id="导航-任务概览" transform="translate(-24.000000, -12.000000)">
            <g id="导航">
                <g id="logo" transform="translate(24.000000, 12.000000)">
                    <path d="M46.5794027,28.0628148 L47.4896054,28.0628148 C48.2753338,28.0628148 48.7082669,27.6776296 48.7082669,26.9786074 L48.7082669,25.7493333 C48.7082669,25.0522074 48.2753338,24.6665481 47.4896054,24.6665481 L46.5794027,24.6665481 L46.5794027,28.0628148 Z M47.5481675,28.8040296 L46.0933606,28.8040296 C45.9269208,28.8040296 45.8493912,28.7272296 45.8493912,28.5605926 L45.8493912,24.1687704 C45.8493912,24.0021333 45.9269208,23.9248593 46.0933606,23.9248593 L47.5481675,23.9248593 C48.804527,23.9248593 49.5546914,24.6101333 49.5546914,25.7576296 L49.5546914,26.9729185 C49.5546914,28.1187556 48.804527,28.8040296 47.5481675,28.8040296 Z" id="Fill-1" fill="#5182E4"></path>
                    <path d="M55.7783533,28.8054044 L55.4848314,28.8054044 C55.3162577,28.8054044 55.2406249,28.7305007 55.2406249,28.5624415 L55.2406249,24.6665007 L54.0487549,24.6665007 C53.8799442,24.6665007 53.8045484,24.5901748 53.8045484,24.4225896 L53.8045484,24.168723 C53.8045484,24.0016119 53.8799442,23.9248119 54.0487549,23.9248119 L57.2146669,23.9248119 C57.3813438,23.9248119 57.457925,24.0030341 57.457925,24.168723 L57.457925,24.4225896 C57.457925,24.5892267 57.3813438,24.6665007 57.2146669,24.6665007 L56.0218486,24.6665007 L56.0218486,28.5624415 C56.0218486,28.7305007 55.946927,28.8054044 55.7783533,28.8054044" id="Fill-3" fill="#5182E4"></path>
                    <path d="M66.2519197,28.8040059 L65.9712008,28.8040059 C65.7563939,28.8040059 65.698543,28.6812207 65.683369,28.6082133 L64.8834149,25.6419319 C64.8540153,25.5364504 64.8286463,25.4257541 64.8087304,25.3136356 C64.7881033,25.4248059 64.7617859,25.53408 64.7309637,25.6433541 L63.9236597,28.6053689 C63.8997132,28.69568 63.8297706,28.8040059 63.6353537,28.8040059 L63.3546348,28.8040059 C63.1398279,28.8040059 63.0815029,28.6812207 63.0658547,28.6082133 L61.9185583,24.1867615 C61.8998279,24.1161244 61.8889216,24.0409837 61.9313614,23.9859911 C61.9730899,23.9321837 62.0427954,23.9248356 62.1006463,23.9248356 L62.454153,23.9248356 C62.6220153,23.9248356 62.7189866,23.9582578 62.7564474,24.1336652 L63.4504207,27.0219615 C63.4748413,27.1437985 63.4976023,27.2822281 63.5194149,27.4336948 C63.5488145,27.24928 63.5756061,27.1136948 63.6014493,27.0262281 L64.3890746,24.18368 C64.4196597,24.0886281 64.4969522,23.978643 64.6899465,23.978643 L64.9713767,23.978643 C65.1302294,23.978643 65.2369216,24.0511763 65.2720115,24.1846281 L66.0529981,27.0262281 C66.0861912,27.1587319 66.1151166,27.2886281 66.138826,27.4178133 C66.1596902,27.2680059 66.184348,27.1414281 66.2104283,27.0354726 L66.8982371,24.1331911 C66.9352237,23.9582578 67.0329063,23.9248356 67.1998203,23.9248356 L67.507805,23.9248356 C67.5630478,23.9248356 67.6329904,23.9321837 67.6747189,23.9840948 C67.7192925,24.0379022 67.7114685,24.1109096 67.6970057,24.18368 L66.5406998,28.6048948 C66.4994455,28.7793541 66.3773423,28.8040059 66.2519197,28.8040059" id="Fill-5" fill="#5182E4"></path>
                    <path d="M73.6757025,26.9017126 L75.0842761,26.9017126 L74.4550294,25.2452978 C74.4239702,25.156883 74.3990753,25.0696533 74.3796337,24.9869274 C74.3616145,25.0720237 74.3393277,25.1599644 74.3141958,25.2370015 L73.6757025,26.9017126 Z M76.3591289,28.8063052 L76.0990371,28.8063052 C75.87854,28.8063052 75.7761155,28.7804681 75.7128115,28.6071941 L75.3173392,27.5675496 L73.4433507,27.5675496 L73.0478784,28.6081422 C72.9848115,28.7804681 72.8819128,28.8063052 72.6626011,28.8063052 L72.429538,28.8063052 C72.3463182,28.8063052 72.2860964,28.7814163 72.2536145,28.7332978 C72.2180505,28.6849422 72.2147312,28.619757 72.2424711,28.5405867 L73.9758631,24.1160533 C74.0040772,24.0314311 74.0775763,23.9247644 74.261561,23.9247644 L74.527343,23.9247644 C74.7082455,23.9247644 74.7819816,24.0262163 74.8139893,24.1115496 L76.5435878,28.5377422 C76.5727503,28.619757 76.5703793,28.6849422 76.5357637,28.7332978 C76.5009109,28.7814163 76.4406891,28.8063052 76.3591289,28.8063052 L76.3591289,28.8063052 Z" id="Fill-7" fill="#5182E4"></path>
                    <path d="M83.2904918,28.8054044 L83.0159373,28.8054044 C82.8357461,28.8054044 82.7608245,28.7039526 82.7302394,28.6188563 L81.0613369,24.1933748 C81.0331228,24.1127822 81.0352566,24.0466489 81.0701094,23.9990044 C81.1042509,23.9499378 81.1635243,23.9248119 81.2474554,23.9248119 L81.5075472,23.9248119 C81.7235396,23.9248119 81.8238302,23.9520711 81.8873713,24.124397 L83.0496046,27.3293748 C83.0918073,27.4516859 83.1321132,27.6050489 83.1636467,27.7323378 C83.1951801,27.6071822 83.2361973,27.4559526 83.2784,27.3374341 L84.4259335,24.124397 C84.4899488,23.9520711 84.5921361,23.9248119 84.8135816,23.9248119 L85.059922,23.9248119 C85.1469354,23.9248119 85.206683,23.9504119 85.2401132,23.9990044 C85.2714096,24.0480711 85.2714096,24.1146785 85.2391648,24.1957452 L83.5702623,28.6131674 C83.5280597,28.7406933 83.4339335,28.8054044 83.2904918,28.8054044" id="Fill-9" fill="#5182E4"></path>
                    <path d="M93.294257,28.802157 L90.5302187,28.802157 C90.3644902,28.802157 90.2864864,28.725357 90.2864864,28.5591941 L90.2864864,24.1687941 C90.2864864,24.0031052 90.3644902,23.924883 90.5302187,23.924883 L93.2136451,23.924883 C93.3817446,23.924883 93.4580887,24.0007348 93.4580887,24.1687941 L93.4580887,24.4224237 C93.4580887,24.5900089 93.3817446,24.6660978 93.2136451,24.6660978 L91.0752971,24.6660978 L91.0752971,25.960083 L92.9066088,25.960083 C93.0770792,25.960083 93.1503411,26.0349867 93.1503411,26.20992 L93.1503411,26.4566756 C93.1503411,26.6299496 93.0794501,26.7017719 92.9066088,26.7017719 L91.0752971,26.7017719 L91.0752971,28.0614163 L93.294257,28.0614163 C93.4618822,28.0614163 93.5368038,28.1367941 93.5368038,28.3058015 L93.5368038,28.5591941 C93.5368038,28.7272533 93.4618822,28.802157 93.294257,28.802157" id="Fill-11" fill="#5182E4"></path>
                    <path d="M97.7601537,28.8063289 L97.720322,28.8063289 C97.4175533,28.8063289 97.3096757,28.7003733 97.3096757,28.4021807 L97.3096757,28.3502696 C97.3096757,28.0511289 97.4206356,27.9397215 97.720322,27.9397215 L97.7601537,27.9397215 C98.0588918,27.9397215 98.1696145,28.0511289 98.1696145,28.3502696 L98.1696145,28.4021807 C98.1696145,28.7003733 98.0624482,28.8063289 97.7601537,28.8063289" id="Fill-13" fill="#5182E4"></path>
                    <path d="M103.604608,28.7993837 C102.438581,28.7993837 101.743423,28.1619911 101.743423,27.0929541 L101.743423,25.6323319 C101.743423,24.5632948 102.438581,23.9249541 103.604608,23.9249541 C104.54421,23.9249541 105.145717,24.308717 105.392057,25.0613096 C105.434734,25.2073244 105.381388,25.3137541 105.241503,25.3632948 L104.978092,25.4531319 C104.784149,25.5240059 104.713258,25.4109393 104.674375,25.3094874 C104.519553,24.8373096 104.200187,24.6372504 103.604608,24.6372504 C102.892379,24.6372504 102.499277,24.9887763 102.499277,25.6256948 L102.499277,27.0979319 C102.499277,27.7272652 102.901625,28.0887467 103.604608,28.0887467 C104.20327,28.0887467 104.524769,27.8841837 104.679828,27.4044207 C104.704486,27.3378133 104.761862,27.1711763 104.985916,27.2539022 L105.248141,27.3489541 C105.334207,27.3752652 105.375461,27.4243319 105.394428,27.4613096 C105.421694,27.5160652 105.423117,27.5798281 105.396799,27.6530726 C105.152593,28.4132504 104.549663,28.7993837 103.604608,28.7993837" id="Fill-15" fill="#5182E4"></path>
                    <path d="M112.214523,24.6373452 C111.501345,24.6373452 111.108718,24.9910044 111.108718,25.63456 L111.108718,27.0956563 C111.108718,27.7382637 111.501345,28.092397 112.214523,28.092397 C112.927227,28.092397 113.321276,27.7382637 113.321276,27.0956563 L113.321276,25.63456 C113.321276,24.9910044 112.927227,24.6373452 112.214523,24.6373452 M112.214523,28.8044563 C111.048022,28.8044563 110.351678,28.1656415 110.351678,27.0956563 L110.351678,25.63456 C110.351678,24.5633896 111.048022,23.9248119 112.214523,23.9248119 C113.381024,23.9248119 114.076894,24.5633896 114.076894,25.63456 L114.076894,27.0956563 C114.076894,28.1656415 113.381024,28.8044563 112.214523,28.8044563" id="Fill-17" fill="#5182E4"></path>
                    <path d="M123.697374,28.8040059 L123.429221,28.8040059 C123.262544,28.8040059 123.187148,28.7295763 123.187148,28.561043 L123.187148,26.1517985 C123.187148,25.9017244 123.205167,25.6272356 123.242628,25.3309393 C123.139255,25.5563615 123.016678,25.7943467 122.871339,26.052717 L122.023018,27.5609837 C121.968249,27.6640948 121.871989,27.72288 121.755339,27.72288 L121.588425,27.72288 C121.471775,27.72288 121.376938,27.6640948 121.320509,27.5590874 L120.459622,26.0382578 C120.333251,25.8211319 120.217787,25.5874133 120.113228,25.3387615 C120.142865,25.6059022 120.157091,25.8784948 120.157091,26.1517985 L120.157091,28.561043 C120.157091,28.7295763 120.082169,28.8040059 119.91407,28.8040059 L119.659905,28.8040059 C119.493228,28.8040059 119.415699,28.7272059 119.415699,28.561043 L119.415699,24.1696948 C119.415699,24.0040059 119.493228,23.9257837 119.659905,23.9257837 L119.892731,23.9257837 C120.057037,23.9257837 120.128876,23.9656059 120.201664,24.0952652 L121.675676,26.7149985 L123.142574,24.1016652 C123.214888,23.9646578 123.280563,23.9257837 123.444158,23.9257837 L123.697374,23.9257837 C123.86405,23.9257837 123.941343,24.0040059 123.941343,24.1696948 L123.941343,28.561043 C123.941343,28.7272059 123.86405,28.8040059 123.697374,28.8040059" id="Fill-19" fill="#5182E4"></path>
                    <path d="M112.285841,10.8210252 L110.767019,11.7900326 L110.767019,7.42167704 L113.157397,7.42167704 L113.157397,5.69344 L110.767019,5.69344 L110.767019,2.98766222 L109.040977,2.98766222 L109.040977,5.69344 L106.650598,5.69344 L106.650598,7.42167704 L109.040977,7.42167704 L109.040977,12.8915437 L106.650598,14.41664 L107.579057,15.8746548 L109.040977,14.9421511 L109.040977,18.3073659 C109.040977,18.8146252 108.604961,19.2261215 108.069604,19.2261215 L106.650598,19.2261215 L106.650598,20.9557807 L108.069604,20.9557807 C109.557367,20.9557807 110.767019,19.7684622 110.767019,18.3073659 L110.767019,13.84064 L113.215248,12.27904 L112.285841,10.8210252 Z" id="Fill-21" fill="#5182E4"></path>
                    <path d="M123.936317,11.2967111 L123.936317,9.59762963 L119.691391,9.59762963 L119.691391,6.75792593 L123.914978,6.75792593 L123.914978,5.02921481 L119.691391,5.02921481 L119.691391,2.97457778 L117.963215,2.97457778 L117.963215,5.02921481 L113.738917,5.02921481 L113.738917,6.75792593 L117.963215,6.75792593 L117.963215,9.59762963 L113.738917,9.59762963 L113.738917,11.3258667 L122.213594,11.3258667 L122.198894,11.4607407 C122.156217,11.8814815 121.947812,12.2661926 121.615881,12.5435259 L118.599812,15.2346074 L114.796118,12.1197037 L113.728722,13.4776889 L117.296271,16.3994074 L113.699085,19.6086519 L114.80489,20.9355852 L118.647942,17.5077926 L122.858726,20.9559704 L123.925647,19.5956148 L119.952906,16.3429926 L122.724057,13.8711704 C123.494137,13.2276148 123.936317,12.2889481 123.936317,11.2967111" id="Fill-23" fill="#5182E4"></path>
                    <path d="M91.5244,3.71825778 L86.7811036,3.71825778 L86.7811036,5.44625778 L89.8837117,5.44625778 L89.8837117,7.20365037 L86.7811036,7.20365037 L86.7811036,8.93141333 L89.8837117,8.93141333 L89.8837117,20.9558281 L91.610465,20.9558281 L91.610465,8.93141333 L94.40414,8.93141333 L94.40414,7.20365037 L91.610465,7.20365037 L91.610465,5.44388741 C92.2906868,5.43274667 94.821899,5.24311704 94.9108092,2.98842074 L92.9196964,2.98842074 C92.6705109,3.47908741 92.2133943,3.71825778 91.5244,3.71825778" id="Fill-25" fill="#5182E4"></path>
                    <mask id="mask-2" fill="white">
                        <use xlink:href="#path-1"></use>
                    </mask>
                    <g id="Clip-28"></g>
                    <polygon id="Fill-27" fill="#5182E4" mask="url(#mask-2)" points="92.67613 20.9559704 94.4043059 20.9559704 94.4043059 10.6112 92.67613 10.6112"></polygon>
                    <polygon id="Fill-29" fill="#5182E4" mask="url(#mask-2)" points="104.078321 14.4536652 103.005946 14.4536652 103.005946 2.98842074 101.278956 2.98842074 101.278956 14.4536652 95.5763786 14.4536652 95.5763786 16.1816652 101.278956 16.1816652 101.278956 20.9558281 103.005946 20.9558281 103.005946 16.1816652 104.078321 16.1816652"></polygon>
                    <polygon id="Fill-30" fill="#5182E4" mask="url(#mask-2)" points="99.8578639 5.59300741 96.5667663 4.5472 96.0435006 6.19508148 99.3345981 7.24017778"></polygon>
                    <polygon id="Fill-31" fill="#5182E4" mask="url(#mask-2)" points="99.8578639 10.1867615 96.5667663 9.14166519 96.0435006 10.7885985 99.3345981 11.8336948"></polygon>
                    <path d="M87.2141078,14.4805215 C87.2141078,16.3604622 87.0061767,18.3674548 86.5912627,20.2006993 L86.4018249,20.9558993 L88.1935419,20.9558993 L88.2772359,20.5818548 C88.7187044,18.6220326 88.9437063,16.4877511 88.9437063,14.4805215 L88.9437063,10.6111289 L87.2141078,10.6111289 L87.2141078,14.4805215 Z" id="Fill-32" fill="#5182E4" mask="url(#mask-2)"></path>
                    <polygon id="Fill-33" fill="#5182E4" mask="url(#mask-2)" points="50.9058883 2.98908444 49.1786608 2.98908444 49.1786608 6.02078815 45.8493912 6.02078815 45.8493912 7.74949926 49.1786608 7.74949926 49.1786608 10.78144 50.9058883 10.78144 50.9058883 7.74949926 54.2138195 7.74949926 54.2138195 6.02078815 50.9058883 6.02078815"></polygon>
                    <polygon id="Fill-34" fill="#5182E4" mask="url(#mask-2)" points="46.1180421 5.27312593 47.8457438 5.27312593 47.8457438 2.98903704 46.1180421 2.98903704"></polygon>
                    <polygon id="Fill-35" fill="#5182E4" mask="url(#mask-2)" points="52.2386157 5.27312593 53.9658432 5.27312593 53.9658432 2.98903704 52.2386157 2.98903704"></polygon>
                    <polygon id="Fill-36" fill="#5182E4" mask="url(#mask-2)" points="46.1180421 10.7813926 47.8457438 10.7813926 47.8457438 8.49801481 46.1180421 8.49801481"></polygon>
                    <polygon id="Fill-37" fill="#5182E4" mask="url(#mask-2)" points="52.2386157 10.7813926 53.9658432 10.7813926 53.9658432 8.49801481 52.2386157 8.49801481"></polygon>
                    <path d="M51.6308497,14.1152474 L51.6308497,16.0165215 C51.6308497,16.2220326 51.517756,16.4128474 51.3316375,16.525203 L50.0506203,17.1867733 L49.0140467,16.6110104 C48.820104,16.4929659 48.7098554,16.3040474 48.7098554,16.0980622 L48.7098554,14.1152474 L51.6308497,14.1152474 Z M48.7098554,11.5443437 L46.9823908,11.5443437 L46.9823908,12.3870104 L45.8493201,12.3870104 L45.8493201,14.1152474 L46.9823908,14.1152474 L46.9823908,16.0980622 C46.9823908,16.9122844 47.4025208,17.6544474 48.1083488,18.0822993 L48.2121958,18.1391881 L45.9112015,19.3291141 L46.6208229,20.9378844 L50.0539396,19.1411437 L53.3580772,20.9378844 L54.2139855,19.501677 L51.8622532,18.1946548 L52.2295113,18.0021807 C52.9215878,17.5883141 53.3580772,16.8238696 53.3580772,16.0165215 L53.3580772,14.1152474 L54.2139855,14.1152474 L54.2139855,12.3870104 L48.7098554,12.3870104 L48.7098554,11.5443437 Z" id="Fill-38" fill="#5182E4" mask="url(#mask-2)"></path>
                    <path d="M61.5424803,6.44278519 L63.2339067,6.44278519 L63.2339067,4.71312593 L57.4070922,4.71312593 C57.4070922,4.69202963 57.4101744,4.67022222 57.4101744,4.64865185 L57.4101744,2.98915556 L55.6829468,2.98915556 L55.6829468,4.64865185 C55.6829468,5.5693037 55.5122394,6.47454815 55.1760405,7.33736296 L54.6688971,8.62115556 L56.5300826,8.62115556 L56.7854325,7.96527407 C56.979138,7.46844444 57.1237652,6.95881481 57.2283235,6.44278519 L59.8145415,6.44278519 L59.8145415,13.4977185 C59.8145415,14.3896889 59.4849813,15.2451556 58.9164306,15.9354074 L58.5027021,15.580563 C57.9467174,15.1041185 57.6273522,14.4188444 57.6273522,13.7018074 L57.6273522,9.42352593 L55.8996505,9.42352593 L55.8996505,13.7018074 C55.8996505,14.9234963 56.4378532,16.0864 57.3774554,16.8920889 L57.6603082,17.136 L54.8244306,19.6507259 L55.9726753,20.9451852 L58.9830539,18.2716444 L62.1079488,20.9558519 L63.2339067,19.6443259 L60.2202088,17.0549333 C61.0550157,16.0522667 61.5424803,14.8045037 61.5424803,13.4977185 L61.5424803,6.44278519 Z" id="Fill-39" fill="#5182E4" mask="url(#mask-2)"></path>
                    <polygon id="Fill-40" fill="#5182E4" mask="url(#mask-2)" points="66.0628375 5.88705185 67.7905392 5.88705185 67.7905392 2.99235556 66.0628375 2.99235556"></polygon>
                    <polygon id="Fill-41" fill="#5182E4" mask="url(#mask-2)" points="66.0628375 11.5470222 67.7905392 11.5470222 67.7905392 8.65208889 66.0628375 8.65208889"></polygon>
                    <polygon id="Fill-42" fill="#5182E4" mask="url(#mask-2)" points="68.746501 4.70423704 70.4744398 4.70423704 70.4744398 2.99235556 68.746501 2.99235556"></polygon>
                    <polygon id="Fill-43" fill="#5182E4" mask="url(#mask-2)" points="65.0437614 20.9590993 66.7043656 20.9590993 67.7983159 14.8352474 66.0547289 14.8352474"></polygon>
                    <polygon id="Fill-44" fill="#5182E4" mask="url(#mask-2)" points="68.746501 20.9590519 70.4744398 20.9590519 70.4744398 6.32580741 68.746501 6.32580741"></polygon>
                    <path d="M81.2830669,2.98607407 L71.7118317,2.98607407 L71.7118317,4.71312593 L81.2830669,4.71312593 C81.5308298,4.71312593 81.7318853,4.89777778 81.7318853,5.12485926 L81.7318853,18.7137185 C81.7318853,18.9984 81.4817514,19.2314074 81.1742409,19.2314074 L79.5209866,19.2314074 L79.5209866,20.9591704 L81.1742409,20.9591704 C82.4341568,20.9591704 83.459587,19.952237 83.459587,18.7137185 L83.459587,5.12485926 C83.459587,3.94536296 82.4832352,2.98607407 81.2830669,2.98607407" id="Fill-45" fill="#5182E4" mask="url(#mask-2)"></path>
                    <path d="M73.4395335,13.382163 L75.1866769,13.382163 L75.1866769,10.4917333 L73.4395335,10.4917333 L73.4395335,13.382163 Z M78.6624704,10.4917333 L78.6624704,12.5923556 C78.6624704,13.0282667 78.3087266,13.382163 77.8734226,13.382163 L76.9143786,13.382163 L76.9143786,10.4917333 L78.6624704,10.4917333 Z M77.8734226,15.110163 C79.2618432,15.110163 80.3911205,13.9809185 80.3911205,12.5923556 L80.3911205,8.7634963 L76.9143786,8.7634963 L76.9143786,7.75632593 L80.3911205,7.75632593 L80.3911205,6.02737778 L76.9143786,6.02737778 L76.9143786,5.15271111 L75.1866769,5.15271111 L75.1866769,6.02737778 L71.7118317,6.02737778 L71.7118317,7.75632593 L75.1866769,7.75632593 L75.1866769,8.7634963 L71.7118317,8.7634963 L71.7118317,15.110163 L75.1866769,15.110163 L75.1866769,20.9590519 L76.9143786,20.9590519 L76.9143786,15.110163 L77.8734226,15.110163 Z" id="Fill-46" fill="#5182E4" mask="url(#mask-2)"></path>
                    <polygon id="Fill-47" fill="#5182E4" mask="url(#mask-2)" points="71.1700015 19.8882844 72.6959365 20.6994252 74.7681354 16.7916326 73.2417262 15.9821511"></polygon>
                    <polygon id="Fill-48" fill="#5182E4" mask="url(#mask-2)" points="79.2899862 15.5254281 77.9553859 16.6238578 79.5318218 18.6071467 80.8666593 17.508717"></polygon>
                    <polygon id="Fill-49" fill="#5182E4" mask="url(#mask-2)" points="75.0838967 12.2768119 74.0461377 12.6970785 73.5174187 11.3900563 74.5551778 10.9700267"></polygon>
                    <polygon id="Fill-50" fill="#5182E4" mask="url(#mask-2)" points="77.0366715 12.2768119 78.0744306 12.6970785 78.6036237 11.3900563 77.5658646 10.9700267"></polygon>
                    <path d="M31.7290868,16.5121185 C30.1912971,16.5121185 29.4660275,14.8836741 29.2585706,13.0023111 C28.75854,8.45641481 29.3960849,6.42121481 29.9338134,4.59602963 C31.4147006,4.55597037 32.896062,4.51045926 34.2977598,4.46518519 C34.7598554,5.5629037 35.3248497,6.78791111 35.535626,8.95442963 C35.9526738,13.2265481 34.2934922,16.5121185 31.7290868,16.5121185 M25.4489491,8.52325926 C25.4489491,10.0530963 26.0037484,16.5121185 23.009018,16.5121185 C21.6507082,16.5121185 20.6776757,15.6554667 19.742104,12.4327111 C19.0481308,10.0402963 19.3942876,6.85167407 19.6190524,4.70577778 C20.5256987,4.71857778 21.3906164,4.7264 22.1782417,4.7264 C23.1728497,4.7264 24.2995189,4.71431111 25.4913889,4.69487407 C25.4140964,5.58945185 25.4489491,6.56011852 25.4489491,8.52325926 M15.6396719,14.0533333 C15.1275495,15.7095111 14.2216145,16.5121185 13.1805361,16.5121185 C10.816475,16.5121185 9.48661644,12.6007704 9.48661644,9.48491852 C9.48661644,6.35105185 10.1684979,5.68995556 10.6713736,4.48248889 C12.185691,4.53155556 13.7813315,4.57872593 15.3608497,4.61925926 C16.0579052,7.77659259 16.1022417,12.5566815 15.6396719,14.0533333 M11.1880008,25.0042074 C11.8765208,25.0042074 12.4832436,25.3460148 12.856192,25.8670222 C12.1145629,27.5023407 10.8136298,28.6533926 7.77551128,28.6533926 C5.21750746,28.6533926 3.43693384,27.5023407 2.6945935,25.8670222 C3.06801606,25.3460148 3.67402753,25.0042074 4.36349598,25.0042074 C5.50036023,25.0042074 6.42099503,24.0833185 6.42099503,22.9479111 C6.42099503,21.8115556 5.50036023,20.8918519 4.36349598,20.8918519 C3.22710593,20.8918519 2.30694532,21.8115556 2.30694532,22.9479111 L2.30694532,22.8028444 C2.30694532,20.7166815 3.76056673,18.3095704 8.01070822,18.3095704 C11.9872436,18.3095704 13.2246356,20.7657481 13.2428918,22.9317926 C13.2338822,21.8032593 12.3179893,20.8918519 11.1880008,20.8918519 C10.0518478,20.8918519 9.13097591,21.8115556 9.13097591,22.9479111 C9.13097591,24.0833185 10.0518478,25.0042074 11.1880008,25.0042074 M40.7372245,1.69659259 C40.0759702,1.7229037 39.6546547,1.75917037 38.5663946,1.79899259 C38.0592512,0.679940741 37.1424099,-0.105362963 35.9088115,0.0124444444 C34.8243449,0.115318519 33.8347159,0.893274074 33.6929338,1.968 C32.6547006,2.00118519 31.5813774,2.03365926 30.5023641,2.06376296 C30.5839243,0.94802963 30.1912971,0.300207407 28.7907847,0.300207407 C27.6901958,0.300207407 26.627779,0.720237037 26.0364673,2.16995556 C24.595886,2.19602963 23.2385247,2.21285926 22.0739205,2.21285926 C21.3474654,2.21285926 20.551779,2.20622222 19.7129415,2.19531852 C19.4760849,0.371081481 18.3228612,0.1248 17.1838631,0.0164740741 C16.0612245,-0.0904296296 14.9914577,0.613807407 14.9015992,2.09528889 C13.6314883,2.06186667 12.3547388,2.02346667 11.1228,1.98317037 C10.9947694,0.482725926 9.94041377,-0.0946962963 8.82488795,0.0124444444 C7.81700268,0.108207407 7.20221874,0.644148148 6.82144627,1.83265185 C5.45792046,1.7824 4.54748069,1.73665185 3.73875411,1.70299259 C3.04715182,1.67478519 2.47362218,2.22755556 2.47362218,2.92017778 L2.47362218,2.99531852 C2.47362218,3.6493037 2.98337361,4.18548148 3.63632964,4.21226667 C4.36989751,4.2418963 5.17483059,4.28456296 6.41554187,4.33102222 C6.24601989,7.17357037 6.52104857,11.5523556 6.54878853,13.2452741 C6.57060115,14.5480296 5.91835641,16.0688593 4.18733537,16.9013333 C1.01170249,18.4314074 2.3709369e-05,20.8416 2.3709369e-05,23.6900741 C2.3709369e-05,32.1845333 12.4201767,32.0920889 21.0648497,31.5985778 C33.2405591,30.9045333 36.8581346,25.846637 38.605278,20.8712296 C39.6392436,17.9265185 39.7208038,16.0216889 39.7208038,10.5105778 C39.7208038,7.08491852 39.5484367,5.43561481 39.3068382,4.28598519 C40.1129568,4.25493333 40.3092704,4.22767407 40.8216298,4.20728889 C41.4143641,4.18405926 41.8788306,3.69718519 41.8788306,3.10482963 L41.8788306,2.79857778 C41.8788306,2.17232593 41.3624405,1.6717037 40.7372245,1.69659259" id="Fill-51" fill="#5182E4" mask="url(#mask-2)"></path>
                    <path d="M7.77546386,24.4331852 C7.32214073,24.4331852 6.95535679,24.8010667 6.95535679,25.2538074 C6.95535679,25.7067852 7.32214073,26.0751407 7.77546386,26.0751407 C8.22831281,26.0751407 8.5969935,25.7067852 8.5969935,25.2538074 C8.5969935,24.8010667 8.22831281,24.4331852 7.77546386,24.4331852" id="Fill-52" fill="#5182E4" mask="url(#mask-2)"></path>
                </g>
            </g>
        </g>
    </g>
</svg>