
<svg xmlns="http://www.w3.org/2000/svg" xmlns:xlink="http://www.w3.org/1999/xlink" viewBox="0 0 479.32 91.42"><defs><style>.cls-1{fill:none;}.cls-2{fill:url(#未命名的渐变_2);}.cls-3{clip-path:url(#clip-path);}.cls-4{fill:#fff;}</style><linearGradient id="未命名的渐变_2" x1="13.39" y1="950.72" x2="78.04" y2="886.08" gradientTransform="matrix(1, 0, 0, -1, 0, 964.15)" gradientUnits="userSpaceOnUse"><stop offset="0" stop-color="#0688ff"/><stop offset="1" stop-color="#002dff"/></linearGradient><clipPath id="clip-path" transform="translate(0 -0.04)"><path id="SVGID" class="cls-1" d="M43.88,0a45.71,45.71,0,1,0,47.5,43.85h0A45.71,45.71,0,0,0,43.88,0ZM69.61,58A26.58,26.58,0,1,1,58.39,22.16l0,0A26.58,26.58,0,0,1,69.61,58Z"/></clipPath></defs><title>shuxi-gateway-mini-h</title><g id="图层_2" data-name="图层 2"><g id="text"><path d="M289.84,69.55V65.39h3.5a3.85,3.85,0,0,0,2.6-1A3.17,3.17,0,0,0,297.12,62l0-32c0-2.72-1.51-4.16-4.37-4.16H257.63c-2.82,0-4.31,1.44-4.31,4.16V69.55h-4.18V28.49a6.71,6.71,0,0,1,1.95-5,7.19,7.19,0,0,1,5.29-1.91h37.21a8.39,8.39,0,0,1,5.65,1.74,6.65,6.65,0,0,1,2.09,5.3v34a6.67,6.67,0,0,1-1.81,4.76,6.87,6.87,0,0,1-5.31,2.07Zm-17-8.49a32.21,32.21,0,0,1-7.38-7.27l-.48-.62-.47.62a32.38,32.38,0,0,1-3.79,4.3A33.69,33.69,0,0,1,257.15,61V56.17a25.14,25.14,0,0,0,5.58-6.25l.16-.26-.12-.28a70,70,0,0,1-3-7.8c-.84-2.79-1.68-5.79-2.5-8.92h3.85c1.36,5.23,2.43,9.05,3.21,11.35l.54,1.6.58-1.58c.79-2.16,1.9-6,3.3-11.37h3.88c-.45,1.55-1.1,3.91-1.93,7a46.4,46.4,0,0,1-3.66,9.62l-.18.33.22.3a44,44,0,0,0,5.72,6.38Zm19.65,0a31.24,31.24,0,0,1-4.41-3.77,25.09,25.09,0,0,1-2.95-3.45l-.47-.7-.5.67A31.67,31.67,0,0,1,276.75,61V56.25a26.67,26.67,0,0,0,5.63-6.38l.16-.26-.12-.28c-1.49-3.55-2.55-6.33-3.14-8.27-.49-1.6-1.26-4.42-2.3-8.4h3.84c1,3.89,2,7.78,3.18,11.57l.59,1.94.55-1.95,3.3-11.55h3.83c-.7,2.7-1.32,4.95-1.83,6.7a80.74,80.74,0,0,1-3.66,10l-.13.29.17.27a25.55,25.55,0,0,0,5.66,6.33Z" transform="translate(0 -0.04)"/><path d="M360.62,69.87a34,34,0,0,1-7.91-1.59,30.53,30.53,0,0,1-13-8.74,30.5,30.5,0,0,1-4.44-7l-.52-1.09-.55,1.08a47.59,47.59,0,0,1-2.93,5.18,23.59,23.59,0,0,1-3,3.54,29.92,29.92,0,0,1-11.67,7.15,37.58,37.58,0,0,1-7.78,1.5V65.61a36.26,36.26,0,0,0,7.42-1.7,24.79,24.79,0,0,0,10.44-7.46,29.27,29.27,0,0,0,4.06-7.08l.35-.83H308.53V44.35h23.6l.05-.53c.27-2.68.41-5.13.41-7.29V33.41H308.53V29.32h6.27V21.77H319v7.55h31.08V21.77h4.18v7.55h6.62v4.09h-24v4.72a46.34,46.34,0,0,0,.32,5.7l.07.52h23.64v4.18H338.29l.35.83a28.48,28.48,0,0,0,3.92,6.91A24.89,24.89,0,0,0,353,63.82a34.39,34.39,0,0,0,7.63,1.8Z" transform="translate(0 -0.04)"/><path d="M391.51,69.94V55.13H367.2V50.85h24.31V25.66H367.2v-4.2h52.86v4.2H395.71V50.85h24.34v4.29H395.71v14.8ZM380.73,47.2A9.52,9.52,0,0,1,375,44.5a9.35,9.35,0,0,1-2.4-5.62l-1-9.28h4.22l.73,6.76c.29,2.76.8,4.5,1.55,5.33A4.42,4.42,0,0,0,380.73,43Zm25.8-4.26a4.65,4.65,0,0,0,2.85-1.44,9.36,9.36,0,0,0,1.35-4.56l.79-7.34h4.22l-.86,8a16.14,16.14,0,0,1-1,4.74,8.14,8.14,0,0,1-4,4,9.11,9.11,0,0,1-3.28.83Z" transform="translate(0 -0.04)"/><path d="M433.48,69.94c-2.41,0-4.11-.67-5-2-.25-.37-.56-1.34-.56-3.79V53c0-3.53,1.74-5.18,5.47-5.18H472.7A7.36,7.36,0,0,1,477.31,49a3.69,3.69,0,0,1,1.23,1.78,9.25,9.25,0,0,1,.18,2.25V65.15a4.87,4.87,0,0,1-.83,3.12,4.15,4.15,0,0,1-2.28,1.49,9.9,9.9,0,0,1-2.36.18Zm.85-17.84a2,2,0,0,0-2.26,2.17V63.6c0,.62.24,2.05,2.49,2.05h37.55a2.37,2.37,0,0,0,2-.82,3,3,0,0,0,.38-1.76V54.39a2.1,2.1,0,0,0-2.32-2.29ZM434.7,42c-2.81,0-4.78-.38-5.83-1.14A4.19,4.19,0,0,1,427,37.25a11.4,11.4,0,0,1,.75-3.62l4.32-12h5.07l-4.59,12.19a4.25,4.25,0,0,0-.3,1.55c0,.88.42,2.35,3.25,2.35h35.3c3.31,0,4-1.75,4-3.22a4.15,4.15,0,0,0-.23-1.3l-2-6.18h4.28q.43,1.39,1.18,3.94a21.7,21.7,0,0,1,1.29,5.2c0,1.87-1,3.37-3,4.59-1.41.83-3.66,1.26-6.69,1.26Z" transform="translate(0 -0.04)"/><path d="M110.65,66.38h1.7a18.26,18.26,0,0,0,7.36-2.12l1-.48-4.9-2.9a5.9,5.9,0,0,1-3.15-4,13.52,13.52,0,0,1-.11-2.08v-.6h-1.92V50.66h1.92V48.39h3.93v2.27h15.25V48.39h3.93v2.27h2v3.55h-2v1.5a5.18,5.18,0,0,1-1.15,3.61c-.32.34-1.53,1.23-5.54,3.56l-.93.54,1,.5a26.56,26.56,0,0,0,5.07,2.2,14.76,14.76,0,0,0,3.85.46h.31v3.26H136a19.06,19.06,0,0,1-6.23-.81c-.16-.05-.93-.41-5.06-2.75l-.29-.16-.29.16c-.42.23-1.27.67-2.52,1.3a21.27,21.27,0,0,1-4.76,2,38.24,38.24,0,0,1-6.19.4ZM116.59,55a3.54,3.54,0,0,0,.74,2,11.42,11.42,0,0,0,3,2.09l4,2.18L129.57,58a3.92,3.92,0,0,0,2.11-3l.06-.65h-15.2Zm46.58,14.56a26.62,26.62,0,0,1-10.07-6.36l-.4-.41-.42.39a30.74,30.74,0,0,1-5.53,4.14,45.53,45.53,0,0,1-5.2,2.22V65.23a28.22,28.22,0,0,0,8.15-5.67l.32-.32-.22-.4a45.82,45.82,0,0,1-4.17-10c-.46-1.67-1.26-5.38-2.38-11h4.14c.91,4.53,1.51,7.4,1.77,8.53A52.82,52.82,0,0,0,152,54.63l.52,1.21.57-1.19A26.34,26.34,0,0,0,155.24,48a67.3,67.3,0,0,0,.91-9.37l.31-9.47h-9.81l-.15.38A14.23,14.23,0,0,1,143.22,35a10.3,10.3,0,0,1-4.16,2V32.76A5.17,5.17,0,0,0,142,29.63a70.63,70.63,0,0,0,2.31-8.17h4.3L147.74,25h15.54v4.19h-2.36l-.43,9.68a63.19,63.19,0,0,1-1.59,11.79,33.2,33.2,0,0,1-3.4,8.52l-.21.38.3.32a25.17,25.17,0,0,0,7.61,5.36Zm-51.32-27.7a1.91,1.91,0,0,0,1.28-1.94V38.14h4.22V39.9a6.1,6.1,0,0,1-5.5,6.19ZM137.14,46a6.09,6.09,0,0,1-3.86-1.85,6.21,6.21,0,0,1-1.7-4.51V38.17h4.16V40a1.85,1.85,0,0,0,1.4,1.92Zm-14.79-.32V34.41h-11.7V30.22h11.7V21.63h4.19v8.59h10.3v4.19h-10.3V45.74Zm-10.5-19.53V21.71H116v4.48Zm21-.12V21.62H137V26Z" transform="translate(0 -0.04)"/><path d="M200.15,69.87a6.5,6.5,0,0,1-3.49-1.21c-1.91-1.23-2.84-3.37-2.84-6.52V39.73a8.31,8.31,0,0,1,1-4.5,7.21,7.21,0,0,1,3.31-2.72,10,10,0,0,1,3.41-.45h.6V25.74h-8.3V21.55h28.67v4.19h-8.76V32h.58a12.41,12.41,0,0,1,4,.57c2.8,1.11,4.16,3.56,4.16,7.48V62.62a7,7,0,0,1-2,5.22,6.79,6.79,0,0,1-5.05,2Zm5.63-24.73a18,18,0,0,1-1.65,8.17,11.32,11.32,0,0,1-2.85,3.62,31.76,31.76,0,0,1-3,2.11l-.27.17v2.27a4.3,4.3,0,0,0,1,3.18,3.84,3.84,0,0,0,2.84,1H213.7a4.85,4.85,0,0,0,3.57-1.18,4,4,0,0,0,1-3V59.17h-3.64a4.26,4.26,0,0,1-3.29-1.27,4.34,4.34,0,0,1-1.26-3.14V36.25h-4.31Zm7.92,7.6A2.08,2.08,0,0,0,216,55h2.28V41a4.82,4.82,0,0,0-1.41-3.89,4.41,4.41,0,0,0-2.52-.86l-.64,0ZM201.42,36.31a3.73,3.73,0,0,0-3.41,4V54.45l1-1a9.59,9.59,0,0,0,2.35-3.24,14.63,14.63,0,0,0,.74-5v-9ZM205.78,32h4.31v-6.3h-4.31ZM186.25,69.67V33.77h3.38v35.9Zm-7.77,0V29.76h-8v-4.2h8v-4.1h4.19v4.1H190v4.19h-7.28V69.67Zm-8.59-4.07a1.33,1.33,0,0,0,.76-.58,4.69,4.69,0,0,0,.47-2.34l.4-28.79h3.79l-.4,30.28a5.18,5.18,0,0,1-1.95,4,5.55,5.55,0,0,1-3.06,1.23Z" transform="translate(0 -0.04)"/><path d="M235.39,45.24a3.26,3.26,0,1,1,.29,0Z" transform="translate(0 -0.04)"/><path d="M235.39,44.65a2.65,2.65,0,1,1,.31,0Z" transform="translate(0 -0.04)"/><path class="cls-2" d="M45.71,0A45.71,45.71,0,1,0,91.42,45.75h0A45.71,45.71,0,0,0,45.71,0ZM69.1,59a26.58,26.58,0,1,1-9.73-36.31A26.58,26.58,0,0,1,69.1,59Z" transform="translate(0 -0.04)"/><g class="cls-3"><path class="cls-4" d="M82.64,38a1.13,1.13,0,0,0-.74.49l-14.77-5,1.41-7.82A1.87,1.87,0,0,0,67.81,22h0l-6.43-9.8,0-.06a1.39,1.39,0,1,0-2.33,0L48.31,27.11l-28.5-9.72a1.54,1.54,0,1,0-1.46,1.28h.18L29.9,52.47,21.48,64a2.75,2.75,0,1,0,1.08,4l13.78,6.1a1.09,1.09,0,0,0,.16.53,1.12,1.12,0,0,0,1.07.51L39.86,82l-.18.12a1.28,1.28,0,1,0,1.86.08L45,78.7a1.12,1.12,0,0,0,.38.18,1.1,1.1,0,0,0,1-.26L55,82.46a2.56,2.56,0,1,0,3.56-1.54l3.62-20L82.29,40.17a1.13,1.13,0,0,0,.78.15A1.16,1.16,0,1,0,82.64,38ZM59.92,12.81a1.37,1.37,0,0,0,.63,0L67,22.63a1.86,1.86,0,0,0,.59,2.91L66.2,33.21,49.3,27.44Zm-13.81,64-.21-.1a1.1,1.1,0,0,0-.94.21L38.55,74a1.09,1.09,0,0,0-.15-.56,1.11,1.11,0,0,0-1-.51L30.66,53.12,49,27.87,66.1,33.7l-5,27.65ZM19,18.49a1.54,1.54,0,0,0,.63-.63L48,27.53,30.27,51.95Zm3.28,46.16,8-11,6.57,19.54h0l-.11.11L23,67.17a2.68,2.68,0,0,0-.68-2.52ZM38,75h0l.09-.08,6.39,2.83a1.1,1.1,0,0,0,.12.5L41.1,81.9a1.26,1.26,0,0,0-.83-.09Zm19.54,5.6a2.56,2.56,0,0,0-2.11.91l-8.74-3.87a1.1,1.1,0,0,0-.23-.58L60.92,62.23ZM67,34l14.7,5a1.06,1.06,0,0,0,.18.8L62.33,60Z" transform="translate(0 -0.04)"/><circle class="cls-4" cx="21.86" cy="78.93" r="1.03" transform="translate(-47.96 36.07) rotate(-43)"/><circle class="cls-4" cx="69.44" cy="20.06" r="1.03" transform="translate(4.97 52.71) rotate(-43)"/></g></g></g></svg>