<?xml version="1.0" encoding="UTF-8" standalone="no"?>
<!DOCTYPE svg PUBLIC "-//W3C//DTD SVG 1.1//EN" "http://www.w3.org/Graphics/SVG/1.1/DTD/svg11.dtd">
<svg width="100%" height="100%" viewBox="0 0 221 128" version="1.1" xmlns="http://www.w3.org/2000/svg" xmlns:xlink="http://www.w3.org/1999/xlink" xml:space="preserve" xmlns:serif="http://www.serif.com/" style="fill-rule:evenodd;clip-rule:evenodd;stroke-linejoin:round;stroke-miterlimit:1.41421;">
    <g transform="matrix(1,0,0,1,-2328.2,-150.393)">
        <g id="用户中心-实名认证" transform="matrix(5.34898,0,0,2.64204,-1293.55,-696.96)">
            <rect x="530.242" y="266.216" width="269.21" height="302.797" style="fill:rgb(248,248,248);"/>
            <g transform="matrix(0.320488,0,0,0.445289,-1577.72,259.804)">
                <rect x="6792" y="96" width="616" height="272" style="fill:white;"/>
            </g>
            <g transform="matrix(0.186951,0,0,0.378496,677.092,320.72)">
                <g>
                    <g id="占位图">
                        <g>
                            <g transform="matrix(1,0,0,1,-2328.2,-150.485)">
                                <path d="M2421.9,237.485C2423.5,237.485 2424.8,236.135 2424.8,234.485C2424.8,232.836 2423.5,231.485 2421.9,231.485L2348.21,231.485C2345.46,231.485 2343.2,229.01 2343.2,225.985C2343.2,222.96 2345.46,220.485 2348.21,220.485L2374.45,220.485C2377.07,220.485 2379.2,218.46 2379.2,215.986C2379.2,213.51 2377.07,211.485 2374.45,211.485L2332.79,211.485C2330.27,211.485 2328.2,209.46 2328.2,206.985C2328.2,204.51 2330.27,202.485 2332.79,202.485L2385.98,202.485C2387.2,202.485 2388.2,201.36 2388.2,199.985C2388.2,198.61 2387.2,197.485 2385.98,197.485L2378.2,197.485C2376.55,197.485 2375.2,195.91 2375.2,193.985C2375.2,192.06 2376.55,190.485 2378.2,190.485L2489.2,190.485C2490.85,190.485 2492.2,192.06 2492.2,193.985C2492.2,195.91 2490.85,197.485 2489.2,197.485L2465.87,197.485C2462.82,197.485 2460.33,200.186 2460.33,203.485C2460.33,206.785 2462.82,209.485 2465.87,209.485L2544.18,209.485C2546.95,209.486 2549.2,211.735 2549.2,214.485C2549.2,217.235 2546.95,219.485 2544.18,219.485L2542.35,219.485C2542.35,219.485 2501.07,219.485 2501.07,219.485C2499.01,219.485 2497.33,221.285 2497.33,223.485C2497.33,225.685 2499.01,227.485 2501.07,227.485L2505.2,227.485C2509.62,227.485 2513.2,231.07 2513.2,235.485C2513.2,239.9 2509.62,243.485 2505.2,243.485L2445.82,243.485C2445.82,243.485 2396.69,243.485 2396.69,243.485C2395.04,243.485 2393.69,242.141 2393.69,240.485C2393.69,238.83 2395.04,237.485 2396.69,237.485L2421.9,237.485Z" style="fill:rgb(192,222,255);"/>
                            </g>
                            <g transform="matrix(1,0,0,-1,66.4673,98.6686)">
                                <path d="M0,0L0,61.04C0,65.66 3.785,69.44 8.412,69.44L73.653,69.44C78.28,69.44 82.065,65.66 82.065,61.04L82.065,0" style="fill:white;fill-rule:nonzero;"/>
                            </g>
                            <g transform="matrix(1,0,0,-1,66.4673,98.6686)">
                                <path d="M73.774,70.439C78.636,70.346 82.969,66.157 83.064,61.161C83.064,61.161 83.065,0 83.065,0L81.065,0C81.065,20.378 81.209,40.757 81.064,61.135C80.991,65.008 77.676,68.364 73.749,68.439C51.938,68.578 30.127,68.578 8.317,68.439C4.467,68.366 1.028,64.993 1,61.036L1,0L-1,0C-1,20.387 -1.144,40.775 -0.999,61.161C-0.907,66.022 3.219,70.342 8.291,70.439C30.118,70.578 51.947,70.578 73.774,70.439Z" style="fill:rgb(128,188,255);fill-rule:nonzero;"/>
                            </g>
                            <g transform="matrix(1.80297,0,0,0.767774,-10320.7,-97.8676)">
                                <path d="M5800.55,178.907C5800.55,178.189 5800.3,177.605 5800,177.605L5782.25,177.605C5781.94,177.605 5781.69,178.189 5781.69,178.907C5781.69,179.626 5781.94,180.21 5782.25,180.21L5800,180.21C5800.3,180.21 5800.55,179.626 5800.55,178.907Z" style="fill:rgb(128,188,255);"/>
                            </g>
                            <g transform="matrix(1.32005,0,0,1.32005,-7519.61,-201.12)">
                                <circle cx="5769.56" cy="209.553" r="2.651" style="fill:rgb(128,188,255);"/>
                            </g>
                            <g transform="matrix(1.32005,0,0,1.32005,-7497.61,-201.12)">
                                <circle cx="5769.56" cy="209.553" r="2.651" style="fill:rgb(128,188,255);"/>
                            </g>
                            <g transform="matrix(1,0,0,-1,92,87.5)">
                                <path d="M16.615,-0.501C22.342,-0.58 27.856,-2.87 32.435,-6.565C33.467,-7.398 32.736,-9.347 30.805,-7.824C22.463,-1.342 10.375,-0.941 1.3,-7.746C-0.004,-8.723 0.169,-8.757 -0.504,-8.363C-2.095,-7.434 1.132,-5.139 4.463,-3.466C8.221,-1.579 12.371,-0.475 16.615,-0.501Z" style="fill:rgb(128,188,255);fill-rule:nonzero;"/>
                            </g>
                            <g transform="matrix(1,0,0,-1,45,109.016)">
                                <path d="M3.2,11.013C14.999,10.873 27.789,8.232 34.153,-1.744C44.657,2.238 56.787,4.22 65.984,-1.659C65.984,-1.659 72.483,3.118 77.565,-1.548C77.565,-1.548 78.034,-1.18 78.505,-0.784C89.839,8.648 106.247,10.847 121.159,7.907C122.466,7.649 123.464,6.85 122.745,6.047C122.311,5.562 121.5,5.799 120.772,5.945C106.53,8.716 91.011,6.961 79.917,-2.211C79.252,-2.76 78.35,-3.632 78.35,-3.632L77.576,-4.445C75.985,-2.73 74.115,-0.944 71.629,-1.106C68.91,-1.284 66.319,-4.329 66.319,-4.329C56.762,2.472 43.501,-0.103 34.171,-3.885L33.306,-4.243L32.771,-3.319C31.239,-0.742 30.517,-0.218 29.717,0.563C21.916,8.174 9.801,9.492 0.133,8.953C0.133,8.953 -0.701,9.003 -0.929,9.577C-1.428,10.831 1.148,11.026 3.2,11.013Z" style="fill:rgb(128,188,255);fill-rule:nonzero;"/>
                            </g>
                            <g transform="matrix(0.996378,-0.0850384,0.0850384,0.996378,140.024,107.851)">
                                <path d="M12.617,-0.78C15.45,-0.485 18.194,0.566 20.409,2.358C20.409,2.358 21.3,5.543 18.788,3.627C13.449,-0.365 5.358,1.102 0.199,4.007C0.199,4.007 -0.51,4.266 -0.943,3.895C-2.209,2.809 1.229,1.147 3.896,0.301C6.562,-0.543 9.375,-0.996 12.167,-0.817C12.392,-0.8 12.392,-0.8 12.617,-0.78Z" style="fill:rgb(128,188,255);fill-rule:nonzero;"/>
                            </g>
                            <g transform="matrix(1,0,0,-1,59,117.274)">
                                <path d="M2.042,7.272C6.884,7.164 11.363,4.211 13.7,-0.17C13.7,-0.17 18.675,1.853 22.578,-0.91C22.578,-0.91 23.109,-1.417 22.97,-1.97C22.765,-2.785 22.187,-2.813 20.36,-1.894C18.375,-0.896 15.86,-1.102 14.05,-2.443C14.05,-2.443 12.966,-3.32 12.966,-3.32C10.643,1.832 5.939,6.276 0.193,5.148C0.193,5.148 -3.932,7.337 2.042,7.272Z" style="fill:rgb(128,188,255);fill-rule:nonzero;"/>
                            </g>
                            <g transform="matrix(0.994298,0,0,-1,67,48)">
                                <path d="M82.175,0.985C83.172,0.719 83.239,-0.892 82,-1L0,-1C-1.088,-0.905 -1.455,0.873 0,1L82,1C82.058,0.995 82.116,0.99 82.175,0.985Z" style="fill:rgb(128,188,255);fill-rule:nonzero;"/>
                            </g>
                            <g transform="matrix(0.833333,0,0,0.833333,-7238.52,-1271.04)">
                                <path d="M8775.1,1568.45L8775.18,1568.45L8775.25,1568.45L8775.33,1568.46L8775.41,1568.47L8775.48,1568.48L8775.55,1568.49L8775.63,1568.51L8775.7,1568.52L8775.77,1568.54L8775.84,1568.56L8775.92,1568.58L8775.99,1568.6L8776.05,1568.63L8776.12,1568.65L8776.19,1568.68L8776.26,1568.71L8776.32,1568.74L8776.39,1568.77L8776.45,1568.81L8776.52,1568.84L8776.58,1568.88L8776.64,1568.92L8776.7,1568.96L8776.76,1569L8776.82,1569.04L8776.88,1569.09L8776.93,1569.13L8776.99,1569.18L8777.04,1569.23L8777.09,1569.27L8777.14,1569.32L8777.19,1569.38L8777.24,1569.43L8777.29,1569.48L8777.34,1569.54L8777.38,1569.59L8777.43,1569.65L8777.47,1569.71L8777.51,1569.77L8777.55,1569.83L8777.59,1569.89L8777.62,1569.95L8777.66,1570.02L8777.69,1570.08L8777.73,1570.14L8777.76,1570.21L8777.79,1570.28L8777.82,1570.35L8777.84,1570.41L8777.86,1570.48L8777.89,1570.55L8777.91,1570.62L8777.93,1570.7L8777.95,1570.77L8777.96,1570.84L8777.98,1570.91L8777.99,1570.99L8778,1571.06L8778.01,1571.14L8778.01,1571.22L8778.02,1571.29L8778.02,1571.37L8778.02,1571.44L8778.02,1571.52L8778.02,1571.6L8778.01,1571.68L8778.01,1571.75L8778,1571.83L8777.99,1571.9L8777.98,1571.98L8777.96,1572.05L8777.95,1572.12L8777.93,1572.19L8777.91,1572.27L8777.89,1572.34L8777.86,1572.41L8777.84,1572.48L8777.82,1572.55L8777.79,1572.61L8777.76,1572.68L8777.73,1572.75L8777.69,1572.81L8777.66,1572.88L8777.62,1572.94L8777.59,1573L8777.55,1573.06L8777.51,1573.12L8777.47,1573.18L8777.43,1573.24L8777.38,1573.3L8777.34,1573.35L8777.29,1573.41L8777.24,1573.46L8777.19,1573.52L8777.14,1573.57L8777.09,1573.62L8777.04,1573.67L8776.99,1573.71L8776.93,1573.76L8776.88,1573.81L8776.82,1573.85L8776.76,1573.89L8776.7,1573.93L8776.64,1573.97L8776.58,1574.01L8776.52,1574.05L8776.45,1574.08L8776.39,1574.12L8776.32,1574.15L8776.26,1574.18L8776.19,1574.21L8776.12,1574.24L8776.05,1574.26L8775.99,1574.29L8775.92,1574.31L8775.84,1574.33L8775.77,1574.35L8775.7,1574.37L8775.63,1574.38L8775.55,1574.4L8775.48,1574.41L8775.41,1574.42L8775.33,1574.43L8775.25,1574.44L8775.18,1574.44L8775.1,1574.44L8775.02,1574.44L8774.94,1574.44L8774.87,1574.44L8774.79,1574.44L8774.72,1574.43L8774.64,1574.42L8774.57,1574.41L8774.49,1574.4L8774.42,1574.38L8774.35,1574.37L8774.27,1574.35L8774.2,1574.33L8774.13,1574.31L8774.06,1574.29L8773.99,1574.26L8773.92,1574.24L8773.86,1574.21L8773.79,1574.18L8773.72,1574.15L8773.66,1574.12L8773.59,1574.08L8773.53,1574.05L8773.47,1574.01L8773.41,1573.97L8773.35,1573.93L8773.29,1573.89L8773.23,1573.85L8773.17,1573.81L8773.11,1573.76L8773.06,1573.71L8773.01,1573.67L8772.95,1573.62L8772.9,1573.57L8772.85,1573.52L8772.8,1573.46L8772.76,1573.41L8772.71,1573.35L8772.66,1573.3L8772.62,1573.24L8772.58,1573.18L8772.53,1573.12L8772.5,1573.06L8772.46,1573L8772.42,1572.94L8772.39,1572.88L8772.35,1572.81L8772.32,1572.75L8772.29,1572.68L8772.26,1572.61L8772.23,1572.55L8772.2,1572.48L8772.18,1572.41L8772.16,1572.34L8772.14,1572.27L8772.12,1572.19L8772.1,1572.12L8772.08,1572.05L8772.07,1571.98L8772.06,1571.9L8772.05,1571.83L8772.04,1571.75L8772.03,1571.68L8772.03,1571.6L8772.02,1571.52L8772.02,1571.44L8772.02,1571.37L8772.03,1571.29L8772.03,1571.22L8772.04,1571.14L8772.05,1571.06L8772.06,1570.99L8772.07,1570.91L8772.08,1570.84L8772.1,1570.77L8772.12,1570.7L8772.14,1570.62L8772.16,1570.55L8772.18,1570.48L8772.2,1570.41L8772.23,1570.35L8772.26,1570.28L8772.29,1570.21L8772.32,1570.14L8772.35,1570.08L8772.39,1570.02L8772.42,1569.95L8772.46,1569.89L8772.5,1569.83L8772.53,1569.77L8772.58,1569.71L8772.62,1569.65L8772.66,1569.59L8772.71,1569.54L8772.76,1569.48L8772.8,1569.43L8772.85,1569.38L8772.9,1569.32L8772.95,1569.27L8773.01,1569.23L8773.06,1569.18L8773.11,1569.13L8773.17,1569.09L8773.23,1569.04L8773.29,1569L8773.35,1568.96L8773.41,1568.92L8773.47,1568.88L8773.53,1568.84L8773.59,1568.81L8773.66,1568.77L8773.72,1568.74L8773.79,1568.71L8773.86,1568.68L8773.92,1568.65L8773.99,1568.63L8774.06,1568.6L8774.13,1568.58L8774.2,1568.56L8774.27,1568.54L8774.35,1568.52L8774.42,1568.51L8774.49,1568.49L8774.57,1568.48L8774.64,1568.47L8774.72,1568.46L8774.79,1568.45L8774.87,1568.45L8774.94,1568.45L8775.02,1568.44L8775.1,1568.45ZM8774.98,1569.65L8774.93,1569.65L8774.88,1569.65L8774.84,1569.65L8774.79,1569.66L8774.75,1569.67L8774.7,1569.67L8774.66,1569.68L8774.62,1569.69L8774.57,1569.7L8774.53,1569.71L8774.49,1569.73L8774.45,1569.74L8774.41,1569.75L8774.36,1569.77L8774.32,1569.79L8774.28,1569.8L8774.24,1569.82L8774.2,1569.84L8774.17,1569.86L8774.13,1569.88L8774.09,1569.9L8774.05,1569.93L8774.02,1569.95L8773.98,1569.98L8773.95,1570L8773.91,1570.03L8773.88,1570.06L8773.85,1570.08L8773.81,1570.11L8773.78,1570.14L8773.75,1570.17L8773.72,1570.2L8773.69,1570.24L8773.66,1570.27L8773.63,1570.3L8773.61,1570.34L8773.58,1570.37L8773.55,1570.4L8773.53,1570.44L8773.51,1570.48L8773.48,1570.51L8773.46,1570.55L8773.44,1570.59L8773.42,1570.63L8773.4,1570.67L8773.38,1570.71L8773.36,1570.75L8773.35,1570.79L8773.33,1570.83L8773.32,1570.87L8773.3,1570.91L8773.29,1570.95L8773.28,1571L8773.27,1571.04L8773.26,1571.08L8773.25,1571.13L8773.24,1571.17L8773.24,1571.21L8773.23,1571.26L8773.23,1571.31L8773.23,1571.35L8773.22,1571.4L8773.22,1571.44L8773.22,1571.49L8773.23,1571.54L8773.23,1571.58L8773.23,1571.63L8773.24,1571.68L8773.24,1571.72L8773.25,1571.77L8773.26,1571.81L8773.27,1571.85L8773.28,1571.89L8773.29,1571.94L8773.3,1571.98L8773.32,1572.02L8773.33,1572.06L8773.35,1572.11L8773.36,1572.14L8773.38,1572.18L8773.4,1572.22L8773.42,1572.26L8773.44,1572.3L8773.46,1572.34L8773.48,1572.38L8773.51,1572.41L8773.53,1572.45L8773.55,1572.49L8773.58,1572.52L8773.61,1572.56L8773.63,1572.59L8773.66,1572.62L8773.69,1572.65L8773.72,1572.69L8773.75,1572.72L8773.78,1572.75L8773.81,1572.78L8773.85,1572.81L8773.88,1572.83L8773.91,1572.86L8773.95,1572.89L8773.98,1572.91L8774.02,1572.94L8774.05,1572.96L8774.09,1572.99L8774.13,1573.01L8774.17,1573.03L8774.2,1573.05L8774.24,1573.07L8774.28,1573.09L8774.32,1573.1L8774.36,1573.12L8774.41,1573.14L8774.45,1573.15L8774.49,1573.16L8774.53,1573.18L8774.57,1573.19L8774.62,1573.2L8774.66,1573.21L8774.7,1573.22L8774.75,1573.22L8774.79,1573.23L8774.84,1573.24L8774.88,1573.24L8774.93,1573.24L8774.98,1573.25L8775.02,1573.25L8775.07,1573.25L8775.12,1573.24L8775.16,1573.24L8775.21,1573.24L8775.25,1573.23L8775.3,1573.22L8775.34,1573.22L8775.39,1573.21L8775.43,1573.2L8775.47,1573.19L8775.51,1573.18L8775.56,1573.16L8775.6,1573.15L8775.64,1573.14L8775.68,1573.12L8775.72,1573.1L8775.76,1573.09L8775.8,1573.07L8775.84,1573.05L8775.88,1573.03L8775.92,1573.01L8775.95,1572.99L8775.99,1572.96L8776.03,1572.94L8776.06,1572.91L8776.1,1572.89L8776.13,1572.86L8776.17,1572.83L8776.2,1572.81L8776.23,1572.78L8776.26,1572.75L8776.3,1572.72L8776.33,1572.69L8776.35,1572.65L8776.38,1572.62L8776.41,1572.59L8776.44,1572.56L8776.47,1572.52L8776.49,1572.49L8776.52,1572.45L8776.54,1572.41L8776.56,1572.38L8776.59,1572.34L8776.61,1572.3L8776.63,1572.26L8776.65,1572.22L8776.67,1572.18L8776.68,1572.14L8776.7,1572.11L8776.71,1572.06L8776.73,1572.02L8776.74,1571.98L8776.76,1571.94L8776.77,1571.89L8776.78,1571.85L8776.79,1571.81L8776.8,1571.77L8776.8,1571.72L8776.81,1571.68L8776.81,1571.63L8776.82,1571.58L8776.82,1571.54L8776.82,1571.49L8776.82,1571.44L8776.82,1571.4L8776.82,1571.35L8776.82,1571.31L8776.81,1571.26L8776.81,1571.21L8776.8,1571.17L8776.8,1571.13L8776.79,1571.08L8776.78,1571.04L8776.77,1571L8776.76,1570.95L8776.74,1570.91L8776.73,1570.87L8776.71,1570.83L8776.7,1570.79L8776.68,1570.75L8776.67,1570.71L8776.65,1570.67L8776.63,1570.63L8776.61,1570.59L8776.59,1570.55L8776.56,1570.51L8776.54,1570.48L8776.52,1570.44L8776.49,1570.4L8776.47,1570.37L8776.44,1570.34L8776.41,1570.3L8776.38,1570.27L8776.35,1570.24L8776.33,1570.2L8776.3,1570.17L8776.26,1570.14L8776.23,1570.11L8776.2,1570.08L8776.17,1570.06L8776.13,1570.03L8776.1,1570L8776.06,1569.98L8776.03,1569.95L8775.99,1569.93L8775.95,1569.9L8775.92,1569.88L8775.88,1569.86L8775.84,1569.84L8775.8,1569.82L8775.76,1569.8L8775.72,1569.79L8775.68,1569.77L8775.64,1569.75L8775.6,1569.74L8775.56,1569.73L8775.51,1569.71L8775.47,1569.7L8775.43,1569.69L8775.39,1569.68L8775.34,1569.67L8775.3,1569.67L8775.25,1569.66L8775.21,1569.65L8775.16,1569.65L8775.12,1569.65L8775.07,1569.65L8775.02,1569.64L8774.98,1569.65Z" style="fill:rgb(128,188,255);"/>
                            </g>
                            <g transform="matrix(0.833333,0,0,0.833333,-7231.98,-1271.04)">
                                <path d="M8775.1,1568.45L8775.18,1568.45L8775.25,1568.45L8775.33,1568.46L8775.41,1568.47L8775.48,1568.48L8775.55,1568.49L8775.63,1568.51L8775.7,1568.52L8775.77,1568.54L8775.84,1568.56L8775.92,1568.58L8775.99,1568.6L8776.05,1568.63L8776.12,1568.65L8776.19,1568.68L8776.26,1568.71L8776.32,1568.74L8776.39,1568.77L8776.45,1568.81L8776.52,1568.84L8776.58,1568.88L8776.64,1568.92L8776.7,1568.96L8776.76,1569L8776.82,1569.04L8776.88,1569.09L8776.93,1569.13L8776.99,1569.18L8777.04,1569.23L8777.09,1569.27L8777.14,1569.32L8777.19,1569.38L8777.24,1569.43L8777.29,1569.48L8777.34,1569.54L8777.38,1569.59L8777.43,1569.65L8777.47,1569.71L8777.51,1569.77L8777.55,1569.83L8777.59,1569.89L8777.62,1569.95L8777.66,1570.02L8777.69,1570.08L8777.73,1570.14L8777.76,1570.21L8777.79,1570.28L8777.82,1570.35L8777.84,1570.41L8777.86,1570.48L8777.89,1570.55L8777.91,1570.62L8777.93,1570.7L8777.95,1570.77L8777.96,1570.84L8777.98,1570.91L8777.99,1570.99L8778,1571.06L8778.01,1571.14L8778.01,1571.22L8778.02,1571.29L8778.02,1571.37L8778.02,1571.44L8778.02,1571.52L8778.02,1571.6L8778.01,1571.68L8778.01,1571.75L8778,1571.83L8777.99,1571.9L8777.98,1571.98L8777.96,1572.05L8777.95,1572.12L8777.93,1572.19L8777.91,1572.27L8777.89,1572.34L8777.86,1572.41L8777.84,1572.48L8777.82,1572.55L8777.79,1572.61L8777.76,1572.68L8777.73,1572.75L8777.69,1572.81L8777.66,1572.88L8777.62,1572.94L8777.59,1573L8777.55,1573.06L8777.51,1573.12L8777.47,1573.18L8777.43,1573.24L8777.38,1573.3L8777.34,1573.35L8777.29,1573.41L8777.24,1573.46L8777.19,1573.52L8777.14,1573.57L8777.09,1573.62L8777.04,1573.67L8776.99,1573.71L8776.93,1573.76L8776.88,1573.81L8776.82,1573.85L8776.76,1573.89L8776.7,1573.93L8776.64,1573.97L8776.58,1574.01L8776.52,1574.05L8776.45,1574.08L8776.39,1574.12L8776.32,1574.15L8776.26,1574.18L8776.19,1574.21L8776.12,1574.24L8776.05,1574.26L8775.99,1574.29L8775.92,1574.31L8775.84,1574.33L8775.77,1574.35L8775.7,1574.37L8775.63,1574.38L8775.55,1574.4L8775.48,1574.41L8775.41,1574.42L8775.33,1574.43L8775.25,1574.44L8775.18,1574.44L8775.1,1574.44L8775.02,1574.44L8774.94,1574.44L8774.87,1574.44L8774.79,1574.44L8774.72,1574.43L8774.64,1574.42L8774.57,1574.41L8774.49,1574.4L8774.42,1574.38L8774.35,1574.37L8774.27,1574.35L8774.2,1574.33L8774.13,1574.31L8774.06,1574.29L8773.99,1574.26L8773.92,1574.24L8773.86,1574.21L8773.79,1574.18L8773.72,1574.15L8773.66,1574.12L8773.59,1574.08L8773.53,1574.05L8773.47,1574.01L8773.41,1573.97L8773.35,1573.93L8773.29,1573.89L8773.23,1573.85L8773.17,1573.81L8773.11,1573.76L8773.06,1573.71L8773.01,1573.67L8772.95,1573.62L8772.9,1573.57L8772.85,1573.52L8772.8,1573.46L8772.76,1573.41L8772.71,1573.35L8772.66,1573.3L8772.62,1573.24L8772.58,1573.18L8772.53,1573.12L8772.5,1573.06L8772.46,1573L8772.42,1572.94L8772.39,1572.88L8772.35,1572.81L8772.32,1572.75L8772.29,1572.68L8772.26,1572.61L8772.23,1572.55L8772.2,1572.48L8772.18,1572.41L8772.16,1572.34L8772.14,1572.27L8772.12,1572.19L8772.1,1572.12L8772.08,1572.05L8772.07,1571.98L8772.06,1571.9L8772.05,1571.83L8772.04,1571.75L8772.03,1571.68L8772.03,1571.6L8772.02,1571.52L8772.02,1571.44L8772.02,1571.37L8772.03,1571.29L8772.03,1571.22L8772.04,1571.14L8772.05,1571.06L8772.06,1570.99L8772.07,1570.91L8772.08,1570.84L8772.1,1570.77L8772.12,1570.7L8772.14,1570.62L8772.16,1570.55L8772.18,1570.48L8772.2,1570.41L8772.23,1570.35L8772.26,1570.28L8772.29,1570.21L8772.32,1570.14L8772.35,1570.08L8772.39,1570.02L8772.42,1569.95L8772.46,1569.89L8772.5,1569.83L8772.53,1569.77L8772.58,1569.71L8772.62,1569.65L8772.66,1569.59L8772.71,1569.54L8772.76,1569.48L8772.8,1569.43L8772.85,1569.38L8772.9,1569.32L8772.95,1569.27L8773.01,1569.23L8773.06,1569.18L8773.11,1569.13L8773.17,1569.09L8773.23,1569.04L8773.29,1569L8773.35,1568.96L8773.41,1568.92L8773.47,1568.88L8773.53,1568.84L8773.59,1568.81L8773.66,1568.77L8773.72,1568.74L8773.79,1568.71L8773.86,1568.68L8773.92,1568.65L8773.99,1568.63L8774.06,1568.6L8774.13,1568.58L8774.2,1568.56L8774.27,1568.54L8774.35,1568.52L8774.42,1568.51L8774.49,1568.49L8774.57,1568.48L8774.64,1568.47L8774.72,1568.46L8774.79,1568.45L8774.87,1568.45L8774.94,1568.45L8775.02,1568.44L8775.1,1568.45ZM8774.98,1569.65L8774.93,1569.65L8774.88,1569.65L8774.84,1569.65L8774.79,1569.66L8774.75,1569.67L8774.7,1569.67L8774.66,1569.68L8774.61,1569.69L8774.57,1569.7L8774.53,1569.71L8774.49,1569.73L8774.45,1569.74L8774.4,1569.76L8774.36,1569.77L8774.32,1569.79L8774.28,1569.8L8774.24,1569.82L8774.2,1569.84L8774.17,1569.86L8774.13,1569.88L8774.09,1569.9L8774.05,1569.93L8774.02,1569.95L8773.98,1569.98L8773.95,1570L8773.91,1570.03L8773.88,1570.06L8773.85,1570.08L8773.81,1570.11L8773.78,1570.14L8773.75,1570.17L8773.72,1570.2L8773.69,1570.24L8773.66,1570.27L8773.63,1570.3L8773.61,1570.34L8773.58,1570.37L8773.55,1570.4L8773.53,1570.44L8773.51,1570.48L8773.48,1570.51L8773.46,1570.55L8773.44,1570.59L8773.42,1570.63L8773.4,1570.67L8773.38,1570.7L8773.36,1570.75L8773.35,1570.79L8773.33,1570.83L8773.32,1570.87L8773.3,1570.91L8773.29,1570.95L8773.28,1570.99L8773.27,1571.04L8773.26,1571.08L8773.25,1571.13L8773.24,1571.17L8773.24,1571.22L8773.23,1571.26L8773.23,1571.31L8773.23,1571.35L8773.22,1571.4L8773.22,1571.44L8773.22,1571.49L8773.23,1571.54L8773.23,1571.58L8773.23,1571.63L8773.24,1571.67L8773.24,1571.72L8773.25,1571.77L8773.26,1571.81L8773.27,1571.85L8773.28,1571.9L8773.29,1571.94L8773.3,1571.98L8773.32,1572.02L8773.33,1572.06L8773.35,1572.11L8773.36,1572.14L8773.38,1572.19L8773.4,1572.22L8773.42,1572.26L8773.44,1572.3L8773.46,1572.34L8773.48,1572.38L8773.51,1572.41L8773.53,1572.45L8773.55,1572.49L8773.58,1572.52L8773.61,1572.56L8773.63,1572.59L8773.66,1572.62L8773.69,1572.65L8773.72,1572.69L8773.75,1572.72L8773.78,1572.75L8773.81,1572.78L8773.85,1572.81L8773.88,1572.84L8773.91,1572.86L8773.95,1572.89L8773.98,1572.91L8774.02,1572.94L8774.05,1572.96L8774.09,1572.99L8774.13,1573.01L8774.17,1573.03L8774.2,1573.05L8774.24,1573.07L8774.28,1573.09L8774.32,1573.1L8774.36,1573.12L8774.4,1573.14L8774.45,1573.15L8774.49,1573.16L8774.53,1573.18L8774.57,1573.19L8774.61,1573.2L8774.66,1573.21L8774.7,1573.22L8774.75,1573.22L8774.79,1573.23L8774.84,1573.24L8774.88,1573.24L8774.93,1573.24L8774.98,1573.25L8775.02,1573.25L8775.07,1573.25L8775.12,1573.24L8775.16,1573.24L8775.21,1573.24L8775.25,1573.23L8775.3,1573.22L8775.34,1573.22L8775.39,1573.21L8775.43,1573.2L8775.47,1573.19L8775.52,1573.18L8775.56,1573.16L8775.6,1573.15L8775.64,1573.14L8775.68,1573.12L8775.72,1573.1L8775.76,1573.09L8775.8,1573.07L8775.84,1573.05L8775.88,1573.03L8775.92,1573.01L8775.95,1572.99L8775.99,1572.96L8776.03,1572.94L8776.06,1572.91L8776.1,1572.89L8776.13,1572.86L8776.17,1572.84L8776.2,1572.81L8776.23,1572.78L8776.26,1572.75L8776.3,1572.72L8776.33,1572.69L8776.35,1572.65L8776.39,1572.62L8776.41,1572.59L8776.44,1572.56L8776.47,1572.52L8776.49,1572.49L8776.52,1572.45L8776.54,1572.41L8776.56,1572.38L8776.59,1572.34L8776.61,1572.3L8776.63,1572.26L8776.65,1572.23L8776.66,1572.19L8776.68,1572.14L8776.7,1572.11L8776.71,1572.06L8776.73,1572.02L8776.74,1571.98L8776.76,1571.94L8776.77,1571.9L8776.78,1571.85L8776.79,1571.81L8776.8,1571.77L8776.8,1571.72L8776.81,1571.67L8776.81,1571.63L8776.82,1571.59L8776.82,1571.54L8776.82,1571.49L8776.82,1571.44L8776.82,1571.4L8776.82,1571.35L8776.82,1571.3L8776.81,1571.26L8776.81,1571.22L8776.8,1571.17L8776.8,1571.13L8776.79,1571.08L8776.78,1571.04L8776.77,1570.99L8776.76,1570.95L8776.74,1570.91L8776.73,1570.87L8776.71,1570.83L8776.7,1570.79L8776.68,1570.75L8776.66,1570.7L8776.65,1570.66L8776.63,1570.63L8776.61,1570.59L8776.59,1570.55L8776.56,1570.51L8776.54,1570.48L8776.52,1570.44L8776.49,1570.4L8776.47,1570.37L8776.44,1570.34L8776.41,1570.3L8776.39,1570.27L8776.35,1570.24L8776.33,1570.2L8776.3,1570.17L8776.26,1570.14L8776.23,1570.11L8776.2,1570.08L8776.17,1570.06L8776.13,1570.03L8776.1,1570L8776.06,1569.98L8776.03,1569.95L8775.99,1569.93L8775.95,1569.91L8775.92,1569.88L8775.88,1569.86L8775.84,1569.84L8775.8,1569.82L8775.76,1569.8L8775.72,1569.79L8775.68,1569.77L8775.64,1569.76L8775.6,1569.74L8775.56,1569.73L8775.52,1569.71L8775.47,1569.7L8775.43,1569.69L8775.39,1569.68L8775.34,1569.67L8775.3,1569.67L8775.25,1569.66L8775.21,1569.65L8775.16,1569.65L8775.12,1569.65L8775.07,1569.65L8775.02,1569.64L8774.98,1569.65Z" style="fill:rgb(128,188,255);"/>
                            </g>
                            <g transform="matrix(0.833333,0,0,0.833333,-7225.44,-1271.04)">
                                <path d="M8775.1,1568.45L8775.18,1568.45L8775.25,1568.45L8775.33,1568.46L8775.41,1568.47L8775.48,1568.48L8775.55,1568.49L8775.63,1568.51L8775.7,1568.52L8775.77,1568.54L8775.84,1568.56L8775.92,1568.58L8775.99,1568.6L8776.05,1568.63L8776.12,1568.65L8776.19,1568.68L8776.26,1568.71L8776.32,1568.74L8776.39,1568.77L8776.45,1568.81L8776.52,1568.84L8776.58,1568.88L8776.64,1568.92L8776.7,1568.96L8776.76,1569L8776.82,1569.04L8776.88,1569.09L8776.93,1569.13L8776.99,1569.18L8777.04,1569.23L8777.09,1569.27L8777.14,1569.32L8777.19,1569.38L8777.24,1569.43L8777.29,1569.48L8777.34,1569.54L8777.38,1569.59L8777.43,1569.65L8777.47,1569.71L8777.51,1569.77L8777.55,1569.83L8777.59,1569.89L8777.62,1569.95L8777.66,1570.02L8777.69,1570.08L8777.73,1570.14L8777.76,1570.21L8777.79,1570.28L8777.82,1570.35L8777.84,1570.41L8777.86,1570.48L8777.89,1570.55L8777.91,1570.62L8777.93,1570.7L8777.95,1570.77L8777.96,1570.84L8777.98,1570.91L8777.99,1570.99L8778,1571.06L8778.01,1571.14L8778.01,1571.22L8778.02,1571.29L8778.02,1571.37L8778.02,1571.44L8778.02,1571.52L8778.02,1571.6L8778.01,1571.68L8778.01,1571.75L8778,1571.83L8777.99,1571.9L8777.98,1571.98L8777.96,1572.05L8777.95,1572.12L8777.93,1572.19L8777.91,1572.27L8777.89,1572.34L8777.86,1572.41L8777.84,1572.48L8777.82,1572.55L8777.79,1572.61L8777.76,1572.68L8777.73,1572.75L8777.69,1572.81L8777.66,1572.88L8777.62,1572.94L8777.59,1573L8777.55,1573.06L8777.51,1573.12L8777.47,1573.18L8777.43,1573.24L8777.38,1573.3L8777.34,1573.35L8777.29,1573.41L8777.24,1573.46L8777.19,1573.52L8777.14,1573.57L8777.09,1573.62L8777.04,1573.67L8776.99,1573.71L8776.93,1573.76L8776.88,1573.81L8776.82,1573.85L8776.76,1573.89L8776.7,1573.93L8776.64,1573.97L8776.58,1574.01L8776.52,1574.05L8776.45,1574.08L8776.39,1574.12L8776.32,1574.15L8776.26,1574.18L8776.19,1574.21L8776.12,1574.24L8776.05,1574.26L8775.99,1574.29L8775.92,1574.31L8775.84,1574.33L8775.77,1574.35L8775.7,1574.37L8775.63,1574.38L8775.55,1574.4L8775.48,1574.41L8775.41,1574.42L8775.33,1574.43L8775.25,1574.44L8775.18,1574.44L8775.1,1574.44L8775.02,1574.44L8774.94,1574.44L8774.87,1574.44L8774.79,1574.44L8774.72,1574.43L8774.64,1574.42L8774.57,1574.41L8774.49,1574.4L8774.42,1574.38L8774.35,1574.37L8774.27,1574.35L8774.2,1574.33L8774.13,1574.31L8774.06,1574.29L8773.99,1574.26L8773.92,1574.24L8773.86,1574.21L8773.79,1574.18L8773.72,1574.15L8773.66,1574.12L8773.59,1574.08L8773.53,1574.05L8773.47,1574.01L8773.41,1573.97L8773.35,1573.93L8773.29,1573.89L8773.23,1573.85L8773.17,1573.81L8773.11,1573.76L8773.06,1573.71L8773.01,1573.67L8772.95,1573.62L8772.9,1573.57L8772.85,1573.52L8772.8,1573.46L8772.76,1573.41L8772.71,1573.35L8772.66,1573.3L8772.62,1573.24L8772.58,1573.18L8772.53,1573.12L8772.5,1573.06L8772.46,1573L8772.42,1572.94L8772.39,1572.88L8772.35,1572.81L8772.32,1572.75L8772.29,1572.68L8772.26,1572.61L8772.23,1572.55L8772.2,1572.48L8772.18,1572.41L8772.16,1572.34L8772.14,1572.27L8772.12,1572.19L8772.1,1572.12L8772.08,1572.05L8772.07,1571.98L8772.06,1571.9L8772.05,1571.83L8772.04,1571.75L8772.03,1571.68L8772.03,1571.6L8772.02,1571.52L8772.02,1571.44L8772.02,1571.37L8772.03,1571.29L8772.03,1571.22L8772.04,1571.14L8772.05,1571.06L8772.06,1570.99L8772.07,1570.91L8772.08,1570.84L8772.1,1570.77L8772.12,1570.7L8772.14,1570.62L8772.16,1570.55L8772.18,1570.48L8772.2,1570.41L8772.23,1570.35L8772.26,1570.28L8772.29,1570.21L8772.32,1570.14L8772.35,1570.08L8772.39,1570.02L8772.42,1569.95L8772.46,1569.89L8772.5,1569.83L8772.53,1569.77L8772.58,1569.71L8772.62,1569.65L8772.66,1569.59L8772.71,1569.54L8772.76,1569.48L8772.8,1569.43L8772.85,1569.38L8772.9,1569.32L8772.95,1569.27L8773.01,1569.23L8773.06,1569.18L8773.11,1569.13L8773.17,1569.09L8773.23,1569.04L8773.29,1569L8773.35,1568.96L8773.41,1568.92L8773.47,1568.88L8773.53,1568.84L8773.59,1568.81L8773.66,1568.77L8773.72,1568.74L8773.79,1568.71L8773.86,1568.68L8773.92,1568.65L8773.99,1568.63L8774.06,1568.6L8774.13,1568.58L8774.2,1568.56L8774.27,1568.54L8774.35,1568.52L8774.42,1568.51L8774.49,1568.49L8774.57,1568.48L8774.64,1568.47L8774.72,1568.46L8774.79,1568.45L8774.87,1568.45L8774.94,1568.45L8775.02,1568.44L8775.1,1568.45ZM8774.98,1569.65L8774.93,1569.65L8774.88,1569.65L8774.84,1569.65L8774.79,1569.66L8774.75,1569.67L8774.7,1569.67L8774.66,1569.68L8774.62,1569.69L8774.57,1569.7L8774.53,1569.71L8774.49,1569.73L8774.45,1569.74L8774.41,1569.75L8774.36,1569.77L8774.32,1569.79L8774.28,1569.8L8774.24,1569.82L8774.2,1569.84L8774.17,1569.86L8774.13,1569.88L8774.09,1569.9L8774.05,1569.93L8774.02,1569.95L8773.98,1569.98L8773.95,1570L8773.91,1570.03L8773.88,1570.06L8773.85,1570.08L8773.81,1570.11L8773.78,1570.14L8773.75,1570.17L8773.72,1570.2L8773.69,1570.24L8773.66,1570.27L8773.63,1570.3L8773.61,1570.34L8773.58,1570.37L8773.56,1570.4L8773.53,1570.44L8773.51,1570.48L8773.48,1570.51L8773.46,1570.55L8773.44,1570.59L8773.42,1570.63L8773.4,1570.67L8773.38,1570.71L8773.36,1570.75L8773.35,1570.79L8773.33,1570.83L8773.32,1570.87L8773.3,1570.91L8773.29,1570.95L8773.28,1570.99L8773.27,1571.04L8773.26,1571.08L8773.25,1571.13L8773.24,1571.17L8773.24,1571.22L8773.23,1571.26L8773.23,1571.3L8773.23,1571.35L8773.22,1571.4L8773.22,1571.44L8773.22,1571.49L8773.23,1571.54L8773.23,1571.59L8773.23,1571.63L8773.24,1571.67L8773.24,1571.72L8773.25,1571.77L8773.26,1571.81L8773.27,1571.85L8773.28,1571.9L8773.29,1571.94L8773.3,1571.98L8773.32,1572.02L8773.33,1572.06L8773.35,1572.11L8773.36,1572.14L8773.38,1572.18L8773.4,1572.22L8773.42,1572.26L8773.44,1572.3L8773.46,1572.34L8773.48,1572.38L8773.51,1572.41L8773.53,1572.45L8773.56,1572.49L8773.58,1572.52L8773.61,1572.56L8773.63,1572.59L8773.66,1572.62L8773.69,1572.66L8773.72,1572.69L8773.75,1572.72L8773.78,1572.75L8773.81,1572.78L8773.85,1572.81L8773.88,1572.83L8773.91,1572.86L8773.95,1572.89L8773.98,1572.91L8774.02,1572.94L8774.05,1572.96L8774.09,1572.99L8774.13,1573.01L8774.17,1573.03L8774.2,1573.05L8774.24,1573.07L8774.28,1573.09L8774.32,1573.1L8774.36,1573.12L8774.41,1573.14L8774.45,1573.15L8774.49,1573.16L8774.53,1573.18L8774.57,1573.19L8774.62,1573.2L8774.66,1573.21L8774.7,1573.22L8774.75,1573.22L8774.79,1573.23L8774.84,1573.24L8774.88,1573.24L8774.93,1573.24L8774.98,1573.25L8775.02,1573.25L8775.07,1573.25L8775.12,1573.24L8775.16,1573.24L8775.21,1573.24L8775.25,1573.23L8775.3,1573.22L8775.34,1573.22L8775.39,1573.21L8775.43,1573.2L8775.47,1573.19L8775.51,1573.18L8775.56,1573.16L8775.6,1573.15L8775.64,1573.14L8775.68,1573.12L8775.72,1573.1L8775.76,1573.09L8775.8,1573.07L8775.84,1573.05L8775.88,1573.03L8775.92,1573.01L8775.95,1572.99L8775.99,1572.96L8776.03,1572.94L8776.06,1572.91L8776.1,1572.89L8776.13,1572.86L8776.17,1572.83L8776.2,1572.81L8776.23,1572.78L8776.26,1572.75L8776.3,1572.72L8776.33,1572.69L8776.35,1572.65L8776.38,1572.62L8776.41,1572.59L8776.44,1572.56L8776.47,1572.52L8776.49,1572.49L8776.52,1572.45L8776.54,1572.41L8776.56,1572.38L8776.59,1572.34L8776.61,1572.3L8776.63,1572.26L8776.65,1572.22L8776.66,1572.19L8776.68,1572.14L8776.7,1572.1L8776.71,1572.06L8776.73,1572.02L8776.74,1571.98L8776.76,1571.94L8776.77,1571.89L8776.78,1571.85L8776.79,1571.81L8776.8,1571.77L8776.8,1571.72L8776.81,1571.68L8776.81,1571.63L8776.82,1571.58L8776.82,1571.54L8776.82,1571.49L8776.82,1571.44L8776.82,1571.4L8776.82,1571.35L8776.82,1571.31L8776.81,1571.26L8776.81,1571.21L8776.8,1571.17L8776.8,1571.13L8776.79,1571.08L8776.78,1571.04L8776.77,1571L8776.76,1570.95L8776.74,1570.91L8776.73,1570.87L8776.71,1570.83L8776.7,1570.79L8776.68,1570.75L8776.66,1570.7L8776.65,1570.67L8776.63,1570.63L8776.61,1570.59L8776.59,1570.55L8776.56,1570.51L8776.54,1570.48L8776.52,1570.44L8776.49,1570.4L8776.47,1570.37L8776.44,1570.34L8776.41,1570.3L8776.38,1570.27L8776.35,1570.24L8776.33,1570.2L8776.3,1570.17L8776.26,1570.14L8776.23,1570.11L8776.2,1570.08L8776.17,1570.06L8776.13,1570.03L8776.1,1570L8776.06,1569.98L8776.03,1569.95L8775.99,1569.93L8775.95,1569.9L8775.92,1569.88L8775.88,1569.86L8775.84,1569.84L8775.8,1569.82L8775.76,1569.8L8775.72,1569.79L8775.68,1569.77L8775.64,1569.75L8775.6,1569.74L8775.56,1569.73L8775.51,1569.71L8775.47,1569.7L8775.43,1569.69L8775.39,1569.68L8775.34,1569.67L8775.3,1569.67L8775.25,1569.66L8775.21,1569.65L8775.16,1569.65L8775.12,1569.65L8775.07,1569.65L8775.02,1569.64L8774.98,1569.65Z" style="fill:rgb(128,188,255);"/>
                            </g>
                            <g transform="matrix(0.229507,0,0,0.229507,167.945,117.286)">
                                <path d="M0,-106.666C-30.416,-109.999 -56.666,-125.416 -74.583,-148.333C-77.083,-151.666 -80.833,-153.333 -84.583,-153.333C-88.333,-153.333 -92.083,-151.666 -94.583,-148.333C-112.083,-125.833 -138.75,-109.999 -169.167,-106.666C-175.833,-105.833 -180.833,-99.999 -180.417,-93.333C-172.917,-13.749 -132.917,46.667 -84.583,46.667C-36.25,46.667 3.75,-13.749 11.25,-93.333C11.667,-99.999 6.667,-106.249 0,-106.666" style="fill:white;fill-rule:nonzero;"/>
                            </g>
                            <g transform="matrix(1,0,0,1,-2329.67,-150.347)">
                                <path d="M2497.62,243.152C2490.64,242.388 2484.61,238.849 2480.5,233.59C2479.93,232.825 2479.07,232.442 2478.2,232.442C2477.34,232.442 2476.48,232.825 2475.91,233.59C2471.89,238.754 2465.77,242.388 2458.79,243.152C2457.26,243.344 2456.11,244.683 2456.21,246.212C2457.93,264.478 2467.11,278.343 2478.2,278.343C2489.3,278.343 2498.48,264.478 2500.2,246.212C2500.29,244.683 2499.15,243.248 2497.62,243.152ZM2495.85,244.265C2489.51,243.57 2484.03,240.353 2480.29,235.572C2479.77,234.876 2478.99,234.528 2478.2,234.528C2477.42,234.528 2476.64,234.876 2476.12,235.572C2472.47,240.266 2466.9,243.57 2460.56,244.265C2459.16,244.439 2458.12,245.656 2458.21,247.047C2459.77,263.652 2468.12,276.257 2478.2,276.257C2488.29,276.257 2496.63,263.652 2498.2,247.047C2498.29,245.656 2497.24,244.352 2495.85,244.265Z" style="fill:rgb(128,188,255);"/>
                            </g>
                            <g transform="matrix(1,0,0,1,-2329.54,-150.343)">
                                <path d="M2475.2,257.389L2468.68,250.865C2467.89,250.072 2467.89,248.786 2468.68,247.993C2469.47,247.199 2470.76,247.199 2471.55,247.993L2478.08,254.517L2484.6,247.993C2485.39,247.199 2486.68,247.199 2487.47,247.993C2488.27,248.786 2488.27,250.072 2487.47,250.865L2480.95,257.389L2487.47,263.912C2488.27,264.706 2488.27,265.991 2487.47,266.784C2487.08,267.181 2486.56,267.38 2486.04,267.38C2485.52,267.38 2485,267.181 2484.6,266.784L2478.08,260.261L2471.55,266.784C2471.16,267.181 2470.64,267.38 2470.12,267.38C2469.6,267.38 2469.08,267.181 2468.68,266.784C2467.89,265.991 2467.89,264.706 2468.68,263.912L2475.2,257.389Z" style="fill:rgb(128,188,255);fill-rule:nonzero;"/>
                            </g>
                            <g transform="matrix(1,0,0,1,-10,-40)">
                                <path d="M44.4,77.4L43.2,77.4C42.868,77.4 42.6,77.131 42.6,76.8L42.6,75.6C42.6,75.268 42.331,75 42,75C41.668,75 41.4,75.268 41.4,75.6L41.4,76.8C41.4,77.131 41.131,77.4 40.8,77.4L39.6,77.4C39.268,77.4 39,77.668 39,78C39,78.331 39.268,78.6 39.6,78.6L40.8,78.6C41.131,78.6 41.4,78.868 41.4,79.199L41.4,80.4C41.4,80.731 41.668,81 42,81C42.331,81 42.6,80.731 42.6,80.4L42.6,79.199C42.6,78.868 42.868,78.6 43.2,78.6L44.4,78.6C44.731,78.6 45,78.331 45,78C45,77.668 44.731,77.4 44.4,77.4Z" style="fill:rgb(128,188,255);"/>
                            </g>
                            <g transform="matrix(1,0,0,1,0,-106)">
                                <path d="M76.4,115.4L75.2,115.4C74.868,115.4 74.6,115.131 74.6,114.8L74.6,113.6C74.6,113.268 74.331,113 74,113C73.668,113 73.4,113.268 73.4,113.6L73.4,114.8C73.4,115.131 73.131,115.4 72.8,115.4L71.6,115.4C71.268,115.4 71,115.668 71,116C71,116.331 71.268,116.6 71.6,116.6L72.8,116.6C73.131,116.6 73.4,116.868 73.4,117.2L73.4,118.4C73.4,118.731 73.668,119 74,119C74.331,119 74.6,118.731 74.6,118.4L74.6,117.2C74.6,116.868 74.868,116.6 75.2,116.6L76.4,116.6C76.731,116.6 77,116.331 77,116C77,115.668 76.731,115.4 76.4,115.4Z" style="fill:rgb(128,188,255);"/>
                            </g>
                            <g transform="matrix(1,0,0,1,0,-120)">
                                <path d="M143.4,122.4L142.2,122.4C141.868,122.4 141.6,122.131 141.6,121.8L141.6,120.6C141.6,120.268 141.331,120 141,120C140.668,120 140.4,120.268 140.4,120.6L140.4,121.8C140.4,122.131 140.131,122.4 139.8,122.4L138.6,122.4C138.268,122.4 138,122.668 138,123C138,123.331 138.268,123.6 138.6,123.6L139.8,123.6C140.131,123.6 140.4,123.868 140.4,124.2L140.4,125.4C140.4,125.731 140.668,126 141,126C141.331,126 141.6,125.731 141.6,125.4L141.6,124.2C141.6,123.868 141.868,123.6 142.2,123.6L143.4,123.6C143.731,123.6 144,123.331 144,123C144,122.668 143.731,122.4 143.4,122.4Z" style="fill:rgb(128,188,255);"/>
                            </g>
                            <g transform="matrix(1,0,0,1,11,-49)">
                                <path d="M166.4,88.4L165.2,88.4C164.868,88.4 164.6,88.131 164.6,87.8L164.6,86.6C164.6,86.268 164.331,86 164,86C163.668,86 163.4,86.268 163.4,86.6L163.4,87.8C163.4,88.131 163.131,88.4 162.8,88.4L161.6,88.4C161.268,88.4 161,88.668 161,89C161,89.331 161.268,89.6 161.6,89.6L162.8,89.6C163.131,89.6 163.4,89.868 163.4,90.2L163.4,91.4C163.4,91.731 163.668,92 164,92C164.331,92 164.6,91.731 164.6,91.4L164.6,90.2C164.6,89.868 164.868,89.6 165.2,89.6L166.4,89.6C166.731,89.6 167,89.331 167,89C167,88.668 166.731,88.4 166.4,88.4Z" style="fill:rgb(128,188,255);"/>
                            </g>
                            <g transform="matrix(1,0,0,1,0,-6)">
                                <path d="M79.4,65.4L78.2,65.4C77.868,65.4 77.6,65.131 77.6,64.8L77.6,63.6C77.6,63.268 77.331,63 77,63C76.668,63 76.4,63.268 76.4,63.6L76.4,64.8C76.4,65.131 76.131,65.4 75.8,65.4L74.6,65.4C74.268,65.4 74,65.668 74,66C74,66.331 74.268,66.6 74.6,66.6L75.8,66.6C76.131,66.6 76.4,66.868 76.4,67.2L76.4,68.4C76.4,68.731 76.668,69 77,69C77.331,69 77.6,68.731 77.6,68.4L77.6,67.2C77.6,66.868 77.868,66.6 78.2,66.6L79.4,66.6C79.731,66.6 80,66.331 80,66C80,65.668 79.731,65.4 79.4,65.4Z" style="fill:rgb(128,188,255);"/>
                            </g>
                            <g transform="matrix(1,0,0,1,0,2)">
                                <path d="M128.4,61.4L127.2,61.4C126.868,61.4 126.6,61.131 126.6,60.8L126.6,59.6C126.6,59.268 126.331,59 126,59C125.668,59 125.4,59.268 125.4,59.6L125.4,60.8C125.4,61.131 125.131,61.4 124.8,61.4L123.6,61.4C123.268,61.4 123,61.668 123,62C123,62.331 123.268,62.6 123.6,62.6L124.8,62.6C125.131,62.6 125.4,62.868 125.4,63.2L125.4,64.4C125.4,64.731 125.668,65 126,65C126.331,65 126.6,64.731 126.6,64.4L126.6,63.2C126.6,62.868 126.868,62.6 127.2,62.6L128.4,62.6C128.731,62.6 129,62.331 129,62C129,61.668 128.731,61.4 128.4,61.4Z" style="fill:rgb(128,188,255);"/>
                            </g>
                            <g transform="matrix(1,0,0,1,0,-10)">
                                <path d="M142.4,67.4L141.2,67.4C140.868,67.4 140.6,67.131 140.6,66.8L140.6,65.6C140.6,65.268 140.331,65 140,65C139.668,65 139.4,65.268 139.4,65.6L139.4,66.8C139.4,67.131 139.131,67.4 138.8,67.4L137.6,67.4C137.268,67.4 137,67.668 137,68C137,68.331 137.268,68.6 137.6,68.6L138.8,68.6C139.131,68.6 139.4,68.868 139.4,69.2L139.4,70.4C139.4,70.731 139.668,71 140,71C140.331,71 140.6,70.731 140.6,70.4L140.6,69.2C140.6,68.868 140.868,68.6 141.2,68.6L142.4,68.6C142.731,68.6 143,68.331 143,68C143,67.668 142.731,67.4 142.4,67.4Z" style="fill:rgb(128,188,255);"/>
                            </g>
                            <g transform="matrix(1,0,0,1,0,26)">
                                <path d="M140.4,49.4L139.2,49.4C138.868,49.4 138.6,49.131 138.6,48.8L138.6,47.6C138.6,47.268 138.331,47 138,47C137.668,47 137.4,47.268 137.4,47.6L137.4,48.8C137.4,49.131 137.131,49.4 136.8,49.4L135.6,49.4C135.268,49.4 135,49.668 135,50C135,50.331 135.268,50.6 135.6,50.6L136.8,50.6C137.131,50.6 137.4,50.868 137.4,51.2L137.4,52.4C137.4,52.731 137.668,53 138,53C138.331,53 138.6,52.731 138.6,52.4L138.6,51.2C138.6,50.868 138.868,50.6 139.2,50.6L140.4,50.6C140.731,50.6 141,50.331 141,50C141,49.668 140.731,49.4 140.4,49.4Z" style="fill:rgb(128,188,255);"/>
                            </g>
                        </g>
                    </g>
                </g>
            </g>
        </g>
    </g>
</svg>
