<?xml version="1.0" encoding="UTF-8" standalone="no"?>
<!DOCTYPE svg PUBLIC "-//W3C//DTD SVG 1.1//EN" "http://www.w3.org/Graphics/SVG/1.1/DTD/svg11.dtd">
<svg width="100%" height="100%" viewBox="0 0 221 130" version="1.1" xmlns="http://www.w3.org/2000/svg" xmlns:xlink="http://www.w3.org/1999/xlink" xml:space="preserve" xmlns:serif="http://www.serif.com/" style="fill-rule:evenodd;clip-rule:evenodd;stroke-miterlimit:10;">
    <g transform="matrix(1,0,0,1,-8680.38,-416)">
        <g id="暂无图片" transform="matrix(5.34898,0,0,2.64204,5317.65,-703.353)">
            <rect x="530.242" y="266.216" width="269.21" height="302.797" style="fill:rgb(248,248,248);"/>
            <clipPath id="_clip1">
                <rect x="530.242" y="266.216" width="269.21" height="302.797"/>
            </clipPath>
            <g clip-path="url(#_clip1)">
                <g transform="matrix(0.186951,0,0,0.378496,-952.316,94.6821)">
                    <g transform="matrix(1.95452,0,0,2.29166,-7440.14,-1450.49)">
                        <rect x="7864" y="830.705" width="736.755" height="365.615" style="fill:white;"/>
                    </g>
                    <g transform="matrix(1,0,0,1,-101,-146.254)">
                        <g id="占位图" transform="matrix(1,0,0,1,8557.65,1015.45)">
                            <g>
                                <g>
                                    <g>
                                        <g transform="matrix(1,0,0,1.02564,0.195532,5.97436)">
                                            <path d="M168.282,79L35.718,79C32.023,79 29,75.987 29,72.304L29,46.696C29,43.013 32.023,40 35.718,40L168.282,40C171.977,40 175,43.013 175,46.696L175,72.304C175,75.987 171.977,79 168.282,79Z" style="fill:rgb(192,222,255);"/>
                                        </g>
                                        <g transform="matrix(1,0,0,1,0,-1)">
                                            <path d="M50,48L161.001,48C162.65,48 164,46.425 164,44.5C164,42.575 162.65,41 161.001,41L50,41C48.35,41 47,42.575 47,44.5C47,46.425 48.35,48 50,48Z" style="fill:rgb(192,222,255);"/>
                                        </g>
                                        <path d="M98,56.5C98,54.025 95.938,52 93.416,52L4.584,52C2.062,52 0,54.025 0,56.5C0,58.975 2.062,61 4.584,61L93.416,61C95.938,61 98,58.975 98,56.5Z" style="fill:rgb(192,222,255);"/>
                                        <g transform="matrix(1,0,0,1,0,25)">
                                            <path d="M107,50.5C107,47.475 104.748,45 101.995,45L20.005,45C17.252,45 15,47.475 15,50.5C15,53.525 17.252,56 20.005,56L101.995,56C104.748,56 107,53.525 107,50.5Z" style="fill:rgb(192,222,255);"/>
                                        </g>
                                        <g transform="matrix(1.45413,0,0,1.33333,-8328.1,-228.717)">
                                            <path d="M5854.42,235.288C5854.42,231.976 5851.96,229.288 5848.92,229.288L5808.08,229.288C5805.05,229.288 5802.58,231.976 5802.58,235.288C5802.58,238.599 5805.05,241.288 5808.08,241.288L5848.92,241.288C5851.96,241.288 5854.42,238.599 5854.42,235.288Z" style="fill:rgb(192,222,255);"/>
                                        </g>
                                        <g transform="matrix(1.01753,0,0,1,-5775.11,-148.288)">
                                            <path d="M5797.78,238.288C5797.78,236.632 5796.45,235.288 5794.83,235.288L5742.43,235.288C5740.8,235.288 5739.48,236.632 5739.48,238.288C5739.48,239.943 5740.8,241.288 5742.43,241.288L5794.83,241.288C5796.45,241.288 5797.78,239.943 5797.78,238.288Z" style="fill:rgb(192,222,255);"/>
                                        </g>
                                        <g transform="matrix(1,0,0,1,9,0)">
                                            <path d="M206.98,59L147.021,59C144.259,59 142,61.25 142,64C142,66.75 144.259,69 147.021,69L206.98,69C209.741,69 212,66.75 212,64C212,61.25 209.741,59 206.98,59Z" style="fill:rgb(192,222,255);"/>
                                        </g>
                                    </g>
                                </g>
                                <g>
                                    <g transform="matrix(1,0,0,1,0.1295,-20)">
                                        <path d="M206,73C206,69.7 203.509,67 200.464,67L137.535,67C134.491,67 132,69.7 132,73C132,76.3 134.491,79 137.535,79L200.464,79C203.509,79 206,76.3 206,73Z" style="fill:white;"/>
                                    </g>
                                    <g transform="matrix(1,0,0,1,0,-27)">
                                        <path d="M60,76.5C60,75.125 59,74 57.779,74L13.222,74C12,74 11,75.125 11,76.5C11,77.875 12,79 13.222,79L57.779,79C59,79 60,77.875 60,76.5Z" style="fill:white;"/>
                                    </g>
                                    <g transform="matrix(1,0,0,1.07189,-1.0241,16.3358)">
                                        <path d="M215.173,49.132L173.888,49.132C171.834,49.132 170.154,50.811 170.154,52.864C170.154,54.916 171.834,56.596 173.888,56.596L215.173,56.596C217.226,56.596 218.908,54.916 218.908,52.864C218.908,50.811 217.226,49.132 215.173,49.132Z" style="fill:white;"/>
                                    </g>
                                    <g transform="matrix(1.2,0,0,1.2,-3,33)">
                                        <path d="M80.581,40L17.419,40C16.088,40 15,41.125 15,42.5C15,43.875 16.088,45 17.419,45L80.581,45C81.911,45 83,43.875 83,42.5C83,41.125 81.911,40 80.581,40Z" style="fill:white;"/>
                                    </g>
                                    <g transform="matrix(1,0,0,1,0,5)">
                                        <path d="M46.251,65L12.749,65C10.137,65 8,62.975 8,60.5C8,58.025 10.137,56 12.749,56L46.251,56C48.863,56 51,58.025 51,60.5C51,62.975 48.863,65 46.251,65Z" style="fill:white;"/>
                                    </g>
                                </g>
                                <g transform="matrix(1,0,0,-1,66.4673,98.6686)">
                                    <path d="M0,0L0,61.04C0,65.66 3.785,69.44 8.412,69.44L73.653,69.44C78.28,69.44 82.065,65.66 82.065,61.04L82.065,0" style="fill:white;fill-rule:nonzero;stroke:rgb(128,188,255);stroke-width:2px;"/>
                                </g>
                                <g transform="matrix(1.80297,0,0,0.767774,-10320.7,-97.8676)">
                                    <path d="M5800.55,178.907C5800.55,178.189 5800.3,177.605 5800,177.605L5782.25,177.605C5781.94,177.605 5781.69,178.189 5781.69,178.907C5781.69,179.626 5781.94,180.21 5782.25,180.21L5800,180.21C5800.3,180.21 5800.55,179.626 5800.55,178.907Z" style="fill:rgb(128,188,255);"/>
                                </g>
                                <g transform="matrix(1.32005,0,0,1.32005,-7519.61,-201.12)">
                                    <circle cx="5769.56" cy="209.553" r="2.651" style="fill:rgb(128,188,255);"/>
                                </g>
                                <g transform="matrix(1.32005,0,0,1.32005,-7497.61,-201.12)">
                                    <circle cx="5769.56" cy="209.553" r="2.651" style="fill:rgb(128,188,255);"/>
                                </g>
                                <g transform="matrix(1,-0,0,-1,92,87.5)">
                                    <path d="M0,-7.5C0,-7.5 15.527,6 32,-7.5" style="fill:none;stroke:rgb(128,188,255);stroke-width:2px;stroke-linecap:round;"/>
                                </g>
                                <g transform="matrix(1,0,0,-1,45,109.016)">
                                    <path d="M0,9.947C0,9.947 25.3,11.742 33.733,-2.984C33.733,-2.984 54.16,5.636 66.154,-2.984C66.154,-2.984 71.588,3.516 77.585,-2.984C77.585,-2.984 92.39,13 122,6.714" style="fill:none;stroke:rgb(128,188,255);stroke-width:2px;stroke-linecap:round;"/>
                                </g>
                                <g transform="matrix(0.996378,-0.0850384,0.0850384,0.996378,140.024,107.851)">
                                    <path d="M-0.292,3.136C-0.292,3.136 11.517,-3.607 19.781,3.136" style="fill:none;stroke:rgb(128,188,255);stroke-width:2px;stroke-linecap:round;"/>
                                </g>
                                <g transform="matrix(0.994298,0,0,-1,67,48)">
                                    <path d="M0,0L82,0" style="fill:none;stroke:rgb(128,188,255);stroke-width:2.01px;stroke-linecap:round;"/>
                                </g>
                                <g transform="matrix(1,0,0,-1,59,117.274)">
                                    <path d="M0,6.13C0,6.13 9.017,8 13.344,-1.726C13.344,-1.726 17.311,1.641 22,-1.726" style="fill:none;stroke:rgb(128,188,255);stroke-width:2px;stroke-linecap:round;"/>
                                </g>
                                <g transform="matrix(0.833333,0,0,0.833333,-7238.52,-1271.04)">
                                    <path d="M8775.1,1568.45L8775.18,1568.45L8775.25,1568.45L8775.33,1568.46L8775.41,1568.47L8775.48,1568.48L8775.55,1568.49L8775.63,1568.51L8775.7,1568.52L8775.77,1568.54L8775.84,1568.56L8775.92,1568.58L8775.99,1568.6L8776.05,1568.63L8776.12,1568.65L8776.19,1568.68L8776.26,1568.71L8776.32,1568.74L8776.39,1568.77L8776.45,1568.81L8776.52,1568.84L8776.58,1568.88L8776.64,1568.92L8776.7,1568.96L8776.76,1569L8776.82,1569.04L8776.88,1569.09L8776.93,1569.13L8776.99,1569.18L8777.04,1569.23L8777.09,1569.27L8777.14,1569.32L8777.19,1569.38L8777.24,1569.43L8777.29,1569.48L8777.34,1569.54L8777.38,1569.59L8777.43,1569.65L8777.47,1569.71L8777.51,1569.77L8777.55,1569.83L8777.59,1569.89L8777.62,1569.95L8777.66,1570.02L8777.69,1570.08L8777.73,1570.14L8777.76,1570.21L8777.79,1570.28L8777.82,1570.35L8777.84,1570.41L8777.86,1570.48L8777.89,1570.55L8777.91,1570.62L8777.93,1570.7L8777.95,1570.77L8777.96,1570.84L8777.98,1570.91L8777.99,1570.99L8778,1571.06L8778.01,1571.14L8778.01,1571.22L8778.02,1571.29L8778.02,1571.37L8778.02,1571.44L8778.02,1571.52L8778.02,1571.6L8778.01,1571.68L8778.01,1571.75L8778,1571.83L8777.99,1571.9L8777.98,1571.98L8777.96,1572.05L8777.95,1572.12L8777.93,1572.19L8777.91,1572.27L8777.89,1572.34L8777.86,1572.41L8777.84,1572.48L8777.82,1572.55L8777.79,1572.61L8777.76,1572.68L8777.73,1572.75L8777.69,1572.81L8777.66,1572.88L8777.62,1572.94L8777.59,1573L8777.55,1573.06L8777.51,1573.12L8777.47,1573.18L8777.43,1573.24L8777.38,1573.3L8777.34,1573.35L8777.29,1573.41L8777.24,1573.46L8777.19,1573.52L8777.14,1573.57L8777.09,1573.62L8777.04,1573.67L8776.99,1573.71L8776.93,1573.76L8776.88,1573.81L8776.82,1573.85L8776.76,1573.89L8776.7,1573.93L8776.64,1573.97L8776.58,1574.01L8776.52,1574.05L8776.45,1574.08L8776.39,1574.12L8776.32,1574.15L8776.26,1574.18L8776.19,1574.21L8776.12,1574.24L8776.05,1574.26L8775.99,1574.29L8775.92,1574.31L8775.84,1574.33L8775.77,1574.35L8775.7,1574.37L8775.63,1574.38L8775.55,1574.4L8775.48,1574.41L8775.41,1574.42L8775.33,1574.43L8775.25,1574.44L8775.18,1574.44L8775.1,1574.44L8775.02,1574.44L8774.94,1574.44L8774.87,1574.44L8774.79,1574.44L8774.72,1574.43L8774.64,1574.42L8774.57,1574.41L8774.49,1574.4L8774.42,1574.38L8774.35,1574.37L8774.27,1574.35L8774.2,1574.33L8774.13,1574.31L8774.06,1574.29L8773.99,1574.26L8773.92,1574.24L8773.86,1574.21L8773.79,1574.18L8773.72,1574.15L8773.66,1574.12L8773.59,1574.08L8773.53,1574.05L8773.47,1574.01L8773.41,1573.97L8773.35,1573.93L8773.29,1573.89L8773.23,1573.85L8773.17,1573.81L8773.11,1573.76L8773.06,1573.71L8773.01,1573.67L8772.95,1573.62L8772.9,1573.57L8772.85,1573.52L8772.8,1573.46L8772.76,1573.41L8772.71,1573.35L8772.66,1573.3L8772.62,1573.24L8772.58,1573.18L8772.53,1573.12L8772.5,1573.06L8772.46,1573L8772.42,1572.94L8772.39,1572.88L8772.35,1572.81L8772.32,1572.75L8772.29,1572.68L8772.26,1572.61L8772.23,1572.55L8772.2,1572.48L8772.18,1572.41L8772.16,1572.34L8772.14,1572.27L8772.12,1572.19L8772.1,1572.12L8772.08,1572.05L8772.07,1571.98L8772.06,1571.9L8772.05,1571.83L8772.04,1571.75L8772.03,1571.68L8772.03,1571.6L8772.02,1571.52L8772.02,1571.44L8772.02,1571.37L8772.03,1571.29L8772.03,1571.22L8772.04,1571.14L8772.05,1571.06L8772.06,1570.99L8772.07,1570.91L8772.08,1570.84L8772.1,1570.77L8772.12,1570.7L8772.14,1570.62L8772.16,1570.55L8772.18,1570.48L8772.2,1570.41L8772.23,1570.35L8772.26,1570.28L8772.29,1570.21L8772.32,1570.14L8772.35,1570.08L8772.39,1570.02L8772.42,1569.95L8772.46,1569.89L8772.5,1569.83L8772.53,1569.77L8772.58,1569.71L8772.62,1569.65L8772.66,1569.59L8772.71,1569.54L8772.76,1569.48L8772.8,1569.43L8772.85,1569.38L8772.9,1569.32L8772.95,1569.27L8773.01,1569.23L8773.06,1569.18L8773.11,1569.13L8773.17,1569.09L8773.23,1569.04L8773.29,1569L8773.35,1568.96L8773.41,1568.92L8773.47,1568.88L8773.53,1568.84L8773.59,1568.81L8773.66,1568.77L8773.72,1568.74L8773.79,1568.71L8773.86,1568.68L8773.92,1568.65L8773.99,1568.63L8774.06,1568.6L8774.13,1568.58L8774.2,1568.56L8774.27,1568.54L8774.35,1568.52L8774.42,1568.51L8774.49,1568.49L8774.57,1568.48L8774.64,1568.47L8774.72,1568.46L8774.79,1568.45L8774.87,1568.45L8774.94,1568.45L8775.02,1568.44L8775.1,1568.45ZM8774.98,1569.65L8774.93,1569.65L8774.88,1569.65L8774.84,1569.65L8774.79,1569.66L8774.75,1569.67L8774.7,1569.67L8774.66,1569.68L8774.62,1569.69L8774.57,1569.7L8774.53,1569.71L8774.49,1569.73L8774.45,1569.74L8774.41,1569.75L8774.36,1569.77L8774.32,1569.79L8774.29,1569.8L8774.24,1569.82L8774.2,1569.84L8774.17,1569.86L8774.13,1569.88L8774.09,1569.9L8774.06,1569.93L8774.02,1569.95L8773.98,1569.98L8773.95,1570L8773.91,1570.03L8773.88,1570.06L8773.84,1570.09L8773.82,1570.11L8773.79,1570.14L8773.75,1570.17L8773.72,1570.2L8773.69,1570.24L8773.66,1570.27L8773.64,1570.3L8773.61,1570.33L8773.58,1570.38L8773.55,1570.41L8773.53,1570.44L8773.51,1570.48L8773.48,1570.52L8773.46,1570.55L8773.44,1570.58L8773.42,1570.62L8773.4,1570.67L8773.38,1570.7L8773.37,1570.74L8773.35,1570.79L8773.33,1570.84L8773.32,1570.87L8773.31,1570.91L8773.29,1570.95L8773.28,1571L8773.27,1571.04L8773.26,1571.08L8773.25,1571.13L8773.24,1571.17L8773.24,1571.22L8773.23,1571.26L8773.23,1571.31L8773.23,1571.35L8773.22,1571.4L8773.22,1571.44L8773.22,1571.5L8773.23,1571.54L8773.23,1571.58L8773.23,1571.63L8773.24,1571.67L8773.24,1571.72L8773.25,1571.77L8773.26,1571.81L8773.27,1571.85L8773.28,1571.89L8773.29,1571.94L8773.31,1571.99L8773.32,1572.02L8773.33,1572.06L8773.35,1572.1L8773.37,1572.15L8773.38,1572.19L8773.4,1572.22L8773.42,1572.27L8773.44,1572.31L8773.46,1572.34L8773.48,1572.38L8773.51,1572.41L8773.53,1572.45L8773.55,1572.48L8773.58,1572.52L8773.61,1572.56L8773.64,1572.59L8773.66,1572.62L8773.69,1572.65L8773.72,1572.69L8773.75,1572.72L8773.79,1572.75L8773.82,1572.78L8773.84,1572.81L8773.88,1572.83L8773.91,1572.86L8773.95,1572.89L8773.98,1572.91L8774.02,1572.94L8774.06,1572.96L8774.09,1572.99L8774.13,1573.01L8774.17,1573.03L8774.2,1573.05L8774.24,1573.07L8774.29,1573.09L8774.32,1573.1L8774.36,1573.12L8774.41,1573.14L8774.45,1573.15L8774.49,1573.16L8774.53,1573.18L8774.57,1573.19L8774.62,1573.2L8774.66,1573.21L8774.7,1573.22L8774.75,1573.22L8774.79,1573.23L8774.84,1573.24L8774.88,1573.24L8774.93,1573.24L8774.98,1573.25L8775.02,1573.25L8775.07,1573.25L8775.12,1573.24L8775.16,1573.24L8775.21,1573.24L8775.25,1573.23L8775.3,1573.22L8775.34,1573.22L8775.39,1573.21L8775.43,1573.2L8775.47,1573.19L8775.52,1573.18L8775.56,1573.16L8775.6,1573.15L8775.64,1573.14L8775.68,1573.12L8775.72,1573.1L8775.76,1573.09L8775.8,1573.07L8775.84,1573.05L8775.88,1573.03L8775.92,1573.01L8775.95,1572.99L8775.99,1572.96L8776.03,1572.94L8776.06,1572.91L8776.1,1572.89L8776.14,1572.86L8776.17,1572.83L8776.2,1572.81L8776.23,1572.78L8776.26,1572.75L8776.3,1572.72L8776.33,1572.69L8776.36,1572.65L8776.39,1572.62L8776.42,1572.59L8776.44,1572.56L8776.47,1572.52L8776.49,1572.48L8776.51,1572.45L8776.54,1572.41L8776.56,1572.38L8776.58,1572.34L8776.6,1572.31L8776.62,1572.27L8776.65,1572.22L8776.66,1572.19L8776.68,1572.15L8776.7,1572.1L8776.72,1572.06L8776.73,1572.02L8776.74,1571.99L8776.75,1571.94L8776.77,1571.89L8776.78,1571.85L8776.79,1571.81L8776.8,1571.77L8776.8,1571.72L8776.81,1571.67L8776.81,1571.63L8776.82,1571.58L8776.82,1571.54L8776.82,1571.5L8776.82,1571.44L8776.82,1571.4L8776.82,1571.35L8776.82,1571.31L8776.81,1571.26L8776.81,1571.22L8776.8,1571.17L8776.8,1571.13L8776.79,1571.08L8776.78,1571.04L8776.77,1571L8776.75,1570.95L8776.74,1570.91L8776.73,1570.87L8776.72,1570.84L8776.7,1570.79L8776.68,1570.74L8776.66,1570.7L8776.65,1570.67L8776.62,1570.62L8776.6,1570.58L8776.58,1570.55L8776.56,1570.52L8776.54,1570.48L8776.51,1570.44L8776.49,1570.41L8776.47,1570.37L8776.44,1570.33L8776.42,1570.31L8776.39,1570.27L8776.36,1570.24L8776.33,1570.2L8776.3,1570.17L8776.26,1570.14L8776.23,1570.11L8776.2,1570.09L8776.17,1570.06L8776.14,1570.03L8776.1,1570L8776.06,1569.98L8776.03,1569.95L8775.99,1569.93L8775.95,1569.9L8775.92,1569.88L8775.88,1569.86L8775.84,1569.84L8775.8,1569.82L8775.76,1569.8L8775.72,1569.79L8775.68,1569.77L8775.64,1569.75L8775.6,1569.74L8775.56,1569.73L8775.52,1569.71L8775.47,1569.7L8775.43,1569.69L8775.39,1569.68L8775.34,1569.67L8775.3,1569.67L8775.25,1569.66L8775.21,1569.65L8775.16,1569.65L8775.12,1569.65L8775.07,1569.65L8775.02,1569.64L8774.98,1569.65Z" style="fill:rgb(128,188,255);"/>
                                </g>
                                <g transform="matrix(0.833333,0,0,0.833333,-7231.98,-1271.04)">
                                    <path d="M8775.1,1568.45L8775.18,1568.45L8775.25,1568.45L8775.33,1568.46L8775.41,1568.47L8775.48,1568.48L8775.55,1568.49L8775.63,1568.51L8775.7,1568.52L8775.77,1568.54L8775.84,1568.56L8775.92,1568.58L8775.99,1568.6L8776.05,1568.63L8776.12,1568.65L8776.19,1568.68L8776.26,1568.71L8776.32,1568.74L8776.39,1568.77L8776.45,1568.81L8776.52,1568.84L8776.58,1568.88L8776.64,1568.92L8776.7,1568.96L8776.76,1569L8776.82,1569.04L8776.88,1569.09L8776.93,1569.13L8776.99,1569.18L8777.04,1569.23L8777.09,1569.27L8777.14,1569.32L8777.19,1569.38L8777.24,1569.43L8777.29,1569.48L8777.34,1569.54L8777.38,1569.59L8777.43,1569.65L8777.47,1569.71L8777.51,1569.77L8777.55,1569.83L8777.59,1569.89L8777.62,1569.95L8777.66,1570.02L8777.69,1570.08L8777.73,1570.14L8777.76,1570.21L8777.79,1570.28L8777.82,1570.35L8777.84,1570.41L8777.86,1570.48L8777.89,1570.55L8777.91,1570.62L8777.93,1570.7L8777.95,1570.77L8777.96,1570.84L8777.98,1570.91L8777.99,1570.99L8778,1571.06L8778.01,1571.14L8778.01,1571.22L8778.02,1571.29L8778.02,1571.37L8778.02,1571.44L8778.02,1571.52L8778.02,1571.6L8778.01,1571.68L8778.01,1571.75L8778,1571.83L8777.99,1571.9L8777.98,1571.98L8777.96,1572.05L8777.95,1572.12L8777.93,1572.19L8777.91,1572.27L8777.89,1572.34L8777.86,1572.41L8777.84,1572.48L8777.82,1572.55L8777.79,1572.61L8777.76,1572.68L8777.73,1572.75L8777.69,1572.81L8777.66,1572.88L8777.62,1572.94L8777.59,1573L8777.55,1573.06L8777.51,1573.12L8777.47,1573.18L8777.43,1573.24L8777.38,1573.3L8777.34,1573.35L8777.29,1573.41L8777.24,1573.46L8777.19,1573.52L8777.14,1573.57L8777.09,1573.62L8777.04,1573.67L8776.99,1573.71L8776.93,1573.76L8776.88,1573.81L8776.82,1573.85L8776.76,1573.89L8776.7,1573.93L8776.64,1573.97L8776.58,1574.01L8776.52,1574.05L8776.45,1574.08L8776.39,1574.12L8776.32,1574.15L8776.26,1574.18L8776.19,1574.21L8776.12,1574.24L8776.05,1574.26L8775.99,1574.29L8775.92,1574.31L8775.84,1574.33L8775.77,1574.35L8775.7,1574.37L8775.63,1574.38L8775.55,1574.4L8775.48,1574.41L8775.41,1574.42L8775.33,1574.43L8775.25,1574.44L8775.18,1574.44L8775.1,1574.44L8775.02,1574.44L8774.94,1574.44L8774.87,1574.44L8774.79,1574.44L8774.72,1574.43L8774.64,1574.42L8774.57,1574.41L8774.49,1574.4L8774.42,1574.38L8774.35,1574.37L8774.27,1574.35L8774.2,1574.33L8774.13,1574.31L8774.06,1574.29L8773.99,1574.26L8773.92,1574.24L8773.86,1574.21L8773.79,1574.18L8773.72,1574.15L8773.66,1574.12L8773.59,1574.08L8773.53,1574.05L8773.47,1574.01L8773.41,1573.97L8773.35,1573.93L8773.29,1573.89L8773.23,1573.85L8773.17,1573.81L8773.11,1573.76L8773.06,1573.71L8773.01,1573.67L8772.95,1573.62L8772.9,1573.57L8772.85,1573.52L8772.8,1573.46L8772.76,1573.41L8772.71,1573.35L8772.66,1573.3L8772.62,1573.24L8772.58,1573.18L8772.53,1573.12L8772.5,1573.06L8772.46,1573L8772.42,1572.94L8772.39,1572.88L8772.35,1572.81L8772.32,1572.75L8772.29,1572.68L8772.26,1572.61L8772.23,1572.55L8772.2,1572.48L8772.18,1572.41L8772.16,1572.34L8772.14,1572.27L8772.12,1572.19L8772.1,1572.12L8772.08,1572.05L8772.07,1571.98L8772.06,1571.9L8772.05,1571.83L8772.04,1571.75L8772.03,1571.68L8772.03,1571.6L8772.02,1571.52L8772.02,1571.44L8772.02,1571.37L8772.03,1571.29L8772.03,1571.22L8772.04,1571.14L8772.05,1571.06L8772.06,1570.99L8772.07,1570.91L8772.08,1570.84L8772.1,1570.77L8772.12,1570.7L8772.14,1570.62L8772.16,1570.55L8772.18,1570.48L8772.2,1570.41L8772.23,1570.35L8772.26,1570.28L8772.29,1570.21L8772.32,1570.14L8772.35,1570.08L8772.39,1570.02L8772.42,1569.95L8772.46,1569.89L8772.5,1569.83L8772.53,1569.77L8772.58,1569.71L8772.62,1569.65L8772.66,1569.59L8772.71,1569.54L8772.76,1569.48L8772.8,1569.43L8772.85,1569.38L8772.9,1569.32L8772.95,1569.27L8773.01,1569.23L8773.06,1569.18L8773.11,1569.13L8773.17,1569.09L8773.23,1569.04L8773.29,1569L8773.35,1568.96L8773.41,1568.92L8773.47,1568.88L8773.53,1568.84L8773.59,1568.81L8773.66,1568.77L8773.72,1568.74L8773.79,1568.71L8773.86,1568.68L8773.92,1568.65L8773.99,1568.63L8774.06,1568.6L8774.13,1568.58L8774.2,1568.56L8774.27,1568.54L8774.35,1568.52L8774.42,1568.51L8774.49,1568.49L8774.57,1568.48L8774.64,1568.47L8774.72,1568.46L8774.79,1568.45L8774.87,1568.45L8774.94,1568.45L8775.02,1568.44L8775.1,1568.45ZM8774.98,1569.65L8774.93,1569.65L8774.88,1569.65L8774.84,1569.65L8774.79,1569.66L8774.75,1569.67L8774.7,1569.67L8774.66,1569.68L8774.62,1569.69L8774.57,1569.7L8774.53,1569.71L8774.49,1569.73L8774.45,1569.74L8774.4,1569.75L8774.36,1569.77L8774.32,1569.79L8774.29,1569.8L8774.24,1569.82L8774.2,1569.84L8774.17,1569.86L8774.13,1569.88L8774.09,1569.9L8774.06,1569.93L8774.02,1569.95L8773.98,1569.98L8773.95,1570L8773.91,1570.03L8773.88,1570.06L8773.85,1570.08L8773.82,1570.11L8773.78,1570.14L8773.75,1570.17L8773.72,1570.2L8773.69,1570.24L8773.66,1570.27L8773.64,1570.3L8773.61,1570.33L8773.58,1570.37L8773.55,1570.41L8773.53,1570.44L8773.51,1570.48L8773.49,1570.51L8773.46,1570.55L8773.44,1570.59L8773.42,1570.62L8773.4,1570.67L8773.38,1570.7L8773.37,1570.74L8773.35,1570.79L8773.33,1570.83L8773.32,1570.87L8773.3,1570.91L8773.29,1570.95L8773.28,1571L8773.27,1571.04L8773.26,1571.08L8773.25,1571.13L8773.24,1571.17L8773.24,1571.22L8773.23,1571.26L8773.23,1571.31L8773.23,1571.35L8773.22,1571.4L8773.22,1571.44L8773.22,1571.5L8773.23,1571.54L8773.23,1571.58L8773.23,1571.63L8773.24,1571.67L8773.24,1571.72L8773.25,1571.77L8773.26,1571.81L8773.27,1571.85L8773.28,1571.89L8773.29,1571.94L8773.3,1571.98L8773.32,1572.03L8773.33,1572.06L8773.35,1572.1L8773.37,1572.15L8773.38,1572.19L8773.4,1572.22L8773.42,1572.27L8773.44,1572.3L8773.46,1572.34L8773.49,1572.38L8773.51,1572.41L8773.53,1572.45L8773.55,1572.48L8773.58,1572.52L8773.61,1572.56L8773.64,1572.59L8773.66,1572.62L8773.69,1572.65L8773.72,1572.69L8773.75,1572.72L8773.78,1572.75L8773.82,1572.78L8773.85,1572.81L8773.88,1572.83L8773.91,1572.86L8773.95,1572.89L8773.98,1572.91L8774.02,1572.94L8774.06,1572.96L8774.09,1572.99L8774.13,1573.01L8774.17,1573.03L8774.2,1573.05L8774.24,1573.07L8774.29,1573.09L8774.32,1573.1L8774.36,1573.12L8774.4,1573.14L8774.45,1573.15L8774.49,1573.16L8774.53,1573.18L8774.57,1573.19L8774.62,1573.2L8774.66,1573.21L8774.7,1573.22L8774.75,1573.22L8774.79,1573.23L8774.84,1573.24L8774.88,1573.24L8774.93,1573.24L8774.98,1573.25L8775.02,1573.25L8775.07,1573.25L8775.12,1573.24L8775.16,1573.24L8775.21,1573.24L8775.25,1573.23L8775.3,1573.22L8775.34,1573.22L8775.39,1573.21L8775.43,1573.2L8775.47,1573.19L8775.51,1573.18L8775.56,1573.16L8775.6,1573.15L8775.64,1573.14L8775.68,1573.12L8775.73,1573.1L8775.76,1573.09L8775.8,1573.07L8775.84,1573.05L8775.88,1573.03L8775.92,1573.01L8775.95,1572.99L8775.99,1572.96L8776.03,1572.94L8776.07,1572.91L8776.1,1572.89L8776.13,1572.86L8776.17,1572.83L8776.2,1572.81L8776.23,1572.78L8776.26,1572.75L8776.29,1572.72L8776.32,1572.69L8776.36,1572.65L8776.39,1572.62L8776.42,1572.59L8776.44,1572.56L8776.47,1572.52L8776.49,1572.48L8776.51,1572.45L8776.54,1572.41L8776.56,1572.38L8776.58,1572.34L8776.6,1572.31L8776.62,1572.27L8776.65,1572.22L8776.67,1572.18L8776.68,1572.14L8776.7,1572.11L8776.71,1572.06L8776.73,1572.02L8776.74,1571.99L8776.75,1571.94L8776.77,1571.89L8776.78,1571.85L8776.79,1571.81L8776.79,1571.77L8776.8,1571.72L8776.81,1571.67L8776.81,1571.63L8776.82,1571.58L8776.82,1571.54L8776.82,1571.5L8776.82,1571.44L8776.82,1571.4L8776.82,1571.35L8776.82,1571.31L8776.81,1571.26L8776.81,1571.22L8776.8,1571.17L8776.79,1571.13L8776.79,1571.08L8776.78,1571.04L8776.77,1571L8776.75,1570.95L8776.74,1570.91L8776.73,1570.87L8776.71,1570.83L8776.7,1570.78L8776.68,1570.75L8776.67,1570.71L8776.65,1570.67L8776.62,1570.62L8776.6,1570.58L8776.58,1570.55L8776.56,1570.52L8776.54,1570.48L8776.51,1570.44L8776.49,1570.41L8776.47,1570.37L8776.44,1570.33L8776.42,1570.31L8776.39,1570.27L8776.36,1570.24L8776.32,1570.2L8776.29,1570.17L8776.26,1570.14L8776.23,1570.11L8776.2,1570.09L8776.17,1570.06L8776.13,1570.03L8776.1,1570L8776.07,1569.98L8776.03,1569.95L8775.99,1569.93L8775.95,1569.9L8775.92,1569.88L8775.88,1569.86L8775.84,1569.84L8775.8,1569.82L8775.76,1569.8L8775.73,1569.79L8775.68,1569.77L8775.64,1569.75L8775.6,1569.74L8775.56,1569.73L8775.51,1569.71L8775.47,1569.7L8775.43,1569.69L8775.39,1569.68L8775.34,1569.67L8775.3,1569.67L8775.25,1569.66L8775.21,1569.65L8775.16,1569.65L8775.12,1569.65L8775.07,1569.65L8775.02,1569.64L8774.98,1569.65Z" style="fill:rgb(128,188,255);"/>
                                </g>
                                <g transform="matrix(0.833333,0,0,0.833333,-7225.44,-1271.04)">
                                    <path d="M8775.1,1568.45L8775.18,1568.45L8775.25,1568.45L8775.33,1568.46L8775.41,1568.47L8775.48,1568.48L8775.55,1568.49L8775.63,1568.51L8775.7,1568.52L8775.77,1568.54L8775.84,1568.56L8775.92,1568.58L8775.99,1568.6L8776.05,1568.63L8776.12,1568.65L8776.19,1568.68L8776.26,1568.71L8776.32,1568.74L8776.39,1568.77L8776.45,1568.81L8776.52,1568.84L8776.58,1568.88L8776.64,1568.92L8776.7,1568.96L8776.76,1569L8776.82,1569.04L8776.88,1569.09L8776.93,1569.13L8776.99,1569.18L8777.04,1569.23L8777.09,1569.27L8777.14,1569.32L8777.19,1569.38L8777.24,1569.43L8777.29,1569.48L8777.34,1569.54L8777.38,1569.59L8777.43,1569.65L8777.47,1569.71L8777.51,1569.77L8777.55,1569.83L8777.59,1569.89L8777.62,1569.95L8777.66,1570.02L8777.69,1570.08L8777.73,1570.14L8777.76,1570.21L8777.79,1570.28L8777.82,1570.35L8777.84,1570.41L8777.86,1570.48L8777.89,1570.55L8777.91,1570.62L8777.93,1570.7L8777.95,1570.77L8777.96,1570.84L8777.98,1570.91L8777.99,1570.99L8778,1571.06L8778.01,1571.14L8778.01,1571.22L8778.02,1571.29L8778.02,1571.37L8778.02,1571.44L8778.02,1571.52L8778.02,1571.6L8778.01,1571.68L8778.01,1571.75L8778,1571.83L8777.99,1571.9L8777.98,1571.98L8777.96,1572.05L8777.95,1572.12L8777.93,1572.19L8777.91,1572.27L8777.89,1572.34L8777.86,1572.41L8777.84,1572.48L8777.82,1572.55L8777.79,1572.61L8777.76,1572.68L8777.73,1572.75L8777.69,1572.81L8777.66,1572.88L8777.62,1572.94L8777.59,1573L8777.55,1573.06L8777.51,1573.12L8777.47,1573.18L8777.43,1573.24L8777.38,1573.3L8777.34,1573.35L8777.29,1573.41L8777.24,1573.46L8777.19,1573.52L8777.14,1573.57L8777.09,1573.62L8777.04,1573.67L8776.99,1573.71L8776.93,1573.76L8776.88,1573.81L8776.82,1573.85L8776.76,1573.89L8776.7,1573.93L8776.64,1573.97L8776.58,1574.01L8776.52,1574.05L8776.45,1574.08L8776.39,1574.12L8776.32,1574.15L8776.26,1574.18L8776.19,1574.21L8776.12,1574.24L8776.05,1574.26L8775.99,1574.29L8775.92,1574.31L8775.84,1574.33L8775.77,1574.35L8775.7,1574.37L8775.63,1574.38L8775.55,1574.4L8775.48,1574.41L8775.41,1574.42L8775.33,1574.43L8775.25,1574.44L8775.18,1574.44L8775.1,1574.44L8775.02,1574.44L8774.94,1574.44L8774.87,1574.44L8774.79,1574.44L8774.72,1574.43L8774.64,1574.42L8774.57,1574.41L8774.49,1574.4L8774.42,1574.38L8774.35,1574.37L8774.27,1574.35L8774.2,1574.33L8774.13,1574.31L8774.06,1574.29L8773.99,1574.26L8773.92,1574.24L8773.86,1574.21L8773.79,1574.18L8773.72,1574.15L8773.66,1574.12L8773.59,1574.08L8773.53,1574.05L8773.47,1574.01L8773.41,1573.97L8773.35,1573.93L8773.29,1573.89L8773.23,1573.85L8773.17,1573.81L8773.11,1573.76L8773.06,1573.71L8773.01,1573.67L8772.95,1573.62L8772.9,1573.57L8772.85,1573.52L8772.8,1573.46L8772.76,1573.41L8772.71,1573.35L8772.66,1573.3L8772.62,1573.24L8772.58,1573.18L8772.53,1573.12L8772.5,1573.06L8772.46,1573L8772.42,1572.94L8772.39,1572.88L8772.35,1572.81L8772.32,1572.75L8772.29,1572.68L8772.26,1572.61L8772.23,1572.55L8772.2,1572.48L8772.18,1572.41L8772.16,1572.34L8772.14,1572.27L8772.12,1572.19L8772.1,1572.12L8772.08,1572.05L8772.07,1571.98L8772.06,1571.9L8772.05,1571.83L8772.04,1571.75L8772.03,1571.68L8772.03,1571.6L8772.02,1571.52L8772.02,1571.44L8772.02,1571.37L8772.03,1571.29L8772.03,1571.22L8772.04,1571.14L8772.05,1571.06L8772.06,1570.99L8772.07,1570.91L8772.08,1570.84L8772.1,1570.77L8772.12,1570.7L8772.14,1570.62L8772.16,1570.55L8772.18,1570.48L8772.2,1570.41L8772.23,1570.35L8772.26,1570.28L8772.29,1570.21L8772.32,1570.14L8772.35,1570.08L8772.39,1570.02L8772.42,1569.95L8772.46,1569.89L8772.5,1569.83L8772.53,1569.77L8772.58,1569.71L8772.62,1569.65L8772.66,1569.59L8772.71,1569.54L8772.76,1569.48L8772.8,1569.43L8772.85,1569.38L8772.9,1569.32L8772.95,1569.27L8773.01,1569.23L8773.06,1569.18L8773.11,1569.13L8773.17,1569.09L8773.23,1569.04L8773.29,1569L8773.35,1568.96L8773.41,1568.92L8773.47,1568.88L8773.53,1568.84L8773.59,1568.81L8773.66,1568.77L8773.72,1568.74L8773.79,1568.71L8773.86,1568.68L8773.92,1568.65L8773.99,1568.63L8774.06,1568.6L8774.13,1568.58L8774.2,1568.56L8774.27,1568.54L8774.35,1568.52L8774.42,1568.51L8774.49,1568.49L8774.57,1568.48L8774.64,1568.47L8774.72,1568.46L8774.79,1568.45L8774.87,1568.45L8774.94,1568.45L8775.02,1568.44L8775.1,1568.45ZM8774.98,1569.65L8774.93,1569.65L8774.88,1569.65L8774.84,1569.65L8774.79,1569.66L8774.75,1569.67L8774.7,1569.67L8774.66,1569.68L8774.62,1569.69L8774.57,1569.7L8774.53,1569.71L8774.49,1569.73L8774.45,1569.74L8774.4,1569.75L8774.36,1569.77L8774.32,1569.79L8774.29,1569.8L8774.24,1569.82L8774.2,1569.84L8774.17,1569.86L8774.13,1569.88L8774.09,1569.9L8774.06,1569.93L8774.02,1569.95L8773.98,1569.98L8773.95,1570L8773.91,1570.03L8773.88,1570.05L8773.85,1570.08L8773.81,1570.11L8773.78,1570.14L8773.75,1570.17L8773.72,1570.2L8773.69,1570.24L8773.66,1570.27L8773.64,1570.3L8773.61,1570.33L8773.58,1570.37L8773.55,1570.41L8773.53,1570.44L8773.51,1570.48L8773.49,1570.51L8773.46,1570.55L8773.44,1570.59L8773.42,1570.62L8773.4,1570.67L8773.38,1570.7L8773.37,1570.74L8773.35,1570.79L8773.33,1570.83L8773.32,1570.87L8773.3,1570.91L8773.29,1570.95L8773.28,1571L8773.27,1571.04L8773.26,1571.08L8773.25,1571.13L8773.24,1571.17L8773.24,1571.22L8773.23,1571.25L8773.23,1571.31L8773.23,1571.36L8773.22,1571.4L8773.22,1571.44L8773.22,1571.5L8773.23,1571.53L8773.23,1571.64L8773.24,1571.67L8773.24,1571.72L8773.25,1571.77L8773.26,1571.81L8773.27,1571.85L8773.28,1571.89L8773.29,1571.94L8773.3,1571.98L8773.32,1572.03L8773.33,1572.06L8773.35,1572.1L8773.37,1572.15L8773.38,1572.19L8773.4,1572.22L8773.42,1572.27L8773.44,1572.3L8773.46,1572.34L8773.49,1572.38L8773.51,1572.41L8773.53,1572.45L8773.55,1572.48L8773.58,1572.52L8773.61,1572.56L8773.64,1572.59L8773.66,1572.62L8773.69,1572.65L8773.72,1572.69L8773.75,1572.72L8773.78,1572.75L8773.81,1572.78L8773.85,1572.81L8773.88,1572.84L8773.91,1572.86L8773.95,1572.89L8773.98,1572.91L8774.02,1572.94L8774.06,1572.96L8774.09,1572.99L8774.13,1573.01L8774.17,1573.03L8774.2,1573.05L8774.24,1573.07L8774.29,1573.09L8774.32,1573.1L8774.36,1573.12L8774.4,1573.14L8774.45,1573.15L8774.49,1573.16L8774.53,1573.18L8774.57,1573.19L8774.62,1573.2L8774.66,1573.21L8774.7,1573.22L8774.75,1573.22L8774.79,1573.23L8774.84,1573.24L8774.88,1573.24L8774.93,1573.24L8774.98,1573.25L8775.02,1573.25L8775.07,1573.25L8775.12,1573.24L8775.16,1573.24L8775.21,1573.24L8775.25,1573.23L8775.3,1573.22L8775.34,1573.22L8775.39,1573.21L8775.43,1573.2L8775.47,1573.19L8775.51,1573.18L8775.56,1573.16L8775.6,1573.15L8775.64,1573.14L8775.68,1573.12L8775.72,1573.1L8775.76,1573.09L8775.8,1573.07L8775.84,1573.05L8775.88,1573.03L8775.92,1573.01L8775.95,1572.99L8775.99,1572.96L8776.03,1572.94L8776.06,1572.91L8776.1,1572.89L8776.13,1572.86L8776.17,1572.83L8776.2,1572.81L8776.23,1572.78L8776.26,1572.75L8776.3,1572.72L8776.32,1572.69L8776.35,1572.66L8776.39,1572.62L8776.42,1572.59L8776.44,1572.56L8776.47,1572.52L8776.49,1572.48L8776.51,1572.45L8776.54,1572.41L8776.56,1572.38L8776.58,1572.34L8776.61,1572.3L8776.63,1572.26L8776.64,1572.23L8776.66,1572.19L8776.68,1572.14L8776.7,1572.11L8776.71,1572.06L8776.73,1572.02L8776.74,1571.99L8776.75,1571.94L8776.77,1571.89L8776.78,1571.85L8776.79,1571.81L8776.79,1571.77L8776.8,1571.72L8776.81,1571.67L8776.81,1571.63L8776.82,1571.58L8776.82,1571.54L8776.82,1571.5L8776.82,1571.44L8776.82,1571.4L8776.82,1571.35L8776.82,1571.31L8776.81,1571.26L8776.81,1571.22L8776.8,1571.17L8776.79,1571.13L8776.79,1571.08L8776.78,1571.04L8776.77,1571L8776.75,1570.95L8776.74,1570.91L8776.73,1570.87L8776.71,1570.83L8776.7,1570.78L8776.68,1570.75L8776.66,1570.7L8776.64,1570.66L8776.63,1570.63L8776.61,1570.59L8776.58,1570.55L8776.56,1570.52L8776.54,1570.48L8776.51,1570.44L8776.49,1570.41L8776.47,1570.37L8776.44,1570.33L8776.42,1570.31L8776.39,1570.27L8776.35,1570.23L8776.32,1570.2L8776.3,1570.17L8776.26,1570.14L8776.23,1570.11L8776.2,1570.09L8776.17,1570.06L8776.13,1570.03L8776.1,1570L8776.06,1569.98L8776.03,1569.95L8775.99,1569.93L8775.95,1569.9L8775.92,1569.88L8775.88,1569.86L8775.84,1569.84L8775.8,1569.82L8775.76,1569.8L8775.72,1569.79L8775.68,1569.77L8775.64,1569.75L8775.6,1569.74L8775.56,1569.73L8775.51,1569.71L8775.47,1569.7L8775.43,1569.69L8775.39,1569.68L8775.34,1569.67L8775.3,1569.67L8775.25,1569.66L8775.21,1569.65L8775.16,1569.65L8775.12,1569.65L8775.07,1569.65L8775.02,1569.64L8774.98,1569.65Z" style="fill:rgb(128,188,255);"/>
                                </g>
                                <g transform="matrix(1.2069,0,0,1.2069,-2805.44,-199.854)">
                                    <circle cx="2447.57" cy="253.421" r="17.4" style="fill:white;"/>
                                </g>
                                <g transform="matrix(1,0,0,1,-8124.59,-417.804)">
                                    <path d="M8273.12,501.804C8285.26,501.804 8295.12,511.661 8295.12,523.804C8295.12,535.946 8285.26,545.804 8273.12,545.804C8260.98,545.804 8251.12,535.946 8251.12,523.804C8251.12,511.661 8260.98,501.804 8273.12,501.804ZM8273.12,503.804C8284.16,503.804 8293.12,512.765 8293.12,523.804C8293.12,534.842 8284.16,543.804 8273.12,543.804C8262.08,543.804 8253.12,534.842 8253.12,523.804C8253.12,512.765 8262.08,503.804 8273.12,503.804Z" style="fill:rgb(128,188,255);"/>
                                </g>
                                <g transform="matrix(1,0,0,1,-6999.5,-285.539)">
                                    <path d="M7145.16,391.539L7138.64,385.015C7137.85,384.222 7137.85,382.936 7138.64,382.143C7139.43,381.35 7140.72,381.35 7141.51,382.143L7148.03,388.667L7154.56,382.143C7155.35,381.35 7156.64,381.35 7157.43,382.143C7158.22,382.936 7158.22,384.222 7157.43,385.015L7150.91,391.539L7157.43,398.062C7158.22,398.856 7158.22,400.141 7157.43,400.935C7157.03,401.331 7156.51,401.53 7155.99,401.53C7155.48,401.53 7154.95,401.331 7154.56,400.935L7148.03,394.411L7141.51,400.935C7141.11,401.331 7140.6,401.53 7140.07,401.53C7139.56,401.53 7139.03,401.331 7138.64,400.935C7137.85,400.141 7137.85,398.856 7138.64,398.062L7145.16,391.539Z" style="fill:rgb(128,188,255);fill-rule:nonzero;"/>
                                </g>
                                <g transform="matrix(1,0,0,1,-10,-40)">
                                    <path d="M44.4,77.4L43.2,77.4C42.868,77.4 42.6,77.131 42.6,76.8L42.6,75.6C42.6,75.268 42.331,75 42,75C41.668,75 41.4,75.268 41.4,75.6L41.4,76.8C41.4,77.131 41.131,77.4 40.8,77.4L39.6,77.4C39.268,77.4 39,77.668 39,78C39,78.331 39.268,78.6 39.6,78.6L40.8,78.6C41.131,78.6 41.4,78.868 41.4,79.199L41.4,80.4C41.4,80.731 41.668,81 42,81C42.331,81 42.6,80.731 42.6,80.4L42.6,79.199C42.6,78.868 42.868,78.6 43.2,78.6L44.4,78.6C44.731,78.6 45,78.331 45,78C45,77.668 44.731,77.4 44.4,77.4Z" style="fill:rgb(128,188,255);"/>
                                </g>
                                <g transform="matrix(1,0,0,1,0,-106)">
                                    <path d="M76.4,115.4L75.2,115.4C74.868,115.4 74.6,115.131 74.6,114.8L74.6,113.6C74.6,113.268 74.331,113 74,113C73.668,113 73.4,113.268 73.4,113.6L73.4,114.8C73.4,115.131 73.131,115.4 72.8,115.4L71.6,115.4C71.268,115.4 71,115.668 71,116C71,116.331 71.268,116.6 71.6,116.6L72.8,116.6C73.131,116.6 73.4,116.868 73.4,117.2L73.4,118.4C73.4,118.731 73.668,119 74,119C74.331,119 74.6,118.731 74.6,118.4L74.6,117.2C74.6,116.868 74.868,116.6 75.2,116.6L76.4,116.6C76.731,116.6 77,116.331 77,116C77,115.668 76.731,115.4 76.4,115.4Z" style="fill:rgb(128,188,255);"/>
                                </g>
                                <g transform="matrix(1,0,0,1,0,-120)">
                                    <path d="M143.4,122.4L142.2,122.4C141.868,122.4 141.6,122.131 141.6,121.8L141.6,120.6C141.6,120.268 141.331,120 141,120C140.668,120 140.4,120.268 140.4,120.6L140.4,121.8C140.4,122.131 140.131,122.4 139.8,122.4L138.6,122.4C138.268,122.4 138,122.668 138,123C138,123.331 138.268,123.6 138.6,123.6L139.8,123.6C140.131,123.6 140.4,123.868 140.4,124.2L140.4,125.4C140.4,125.731 140.668,126 141,126C141.331,126 141.6,125.731 141.6,125.4L141.6,124.2C141.6,123.868 141.868,123.6 142.2,123.6L143.4,123.6C143.731,123.6 144,123.331 144,123C144,122.668 143.731,122.4 143.4,122.4Z" style="fill:rgb(128,188,255);"/>
                                </g>
                                <g transform="matrix(1,0,0,1,11,-49)">
                                    <path d="M166.4,88.4L165.2,88.4C164.868,88.4 164.6,88.131 164.6,87.8L164.6,86.6C164.6,86.268 164.331,86 164,86C163.668,86 163.4,86.268 163.4,86.6L163.4,87.8C163.4,88.131 163.131,88.4 162.8,88.4L161.6,88.4C161.268,88.4 161,88.668 161,89C161,89.331 161.268,89.6 161.6,89.6L162.8,89.6C163.131,89.6 163.4,89.868 163.4,90.2L163.4,91.4C163.4,91.731 163.668,92 164,92C164.331,92 164.6,91.731 164.6,91.4L164.6,90.2C164.6,89.868 164.868,89.6 165.2,89.6L166.4,89.6C166.731,89.6 167,89.331 167,89C167,88.668 166.731,88.4 166.4,88.4Z" style="fill:rgb(128,188,255);"/>
                                </g>
                                <g transform="matrix(1,0,0,1,0,-6)">
                                    <path d="M79.4,65.4L78.2,65.4C77.868,65.4 77.6,65.131 77.6,64.8L77.6,63.6C77.6,63.268 77.331,63 77,63C76.668,63 76.4,63.268 76.4,63.6L76.4,64.8C76.4,65.131 76.131,65.4 75.8,65.4L74.6,65.4C74.268,65.4 74,65.668 74,66C74,66.331 74.268,66.6 74.6,66.6L75.8,66.6C76.131,66.6 76.4,66.868 76.4,67.2L76.4,68.4C76.4,68.731 76.668,69 77,69C77.331,69 77.6,68.731 77.6,68.4L77.6,67.2C77.6,66.868 77.868,66.6 78.2,66.6L79.4,66.6C79.731,66.6 80,66.331 80,66C80,65.668 79.731,65.4 79.4,65.4Z" style="fill:rgb(128,188,255);"/>
                                </g>
                                <g transform="matrix(1,0,0,1,0,2)">
                                    <path d="M128.4,61.4L127.2,61.4C126.868,61.4 126.6,61.131 126.6,60.8L126.6,59.6C126.6,59.268 126.331,59 126,59C125.668,59 125.4,59.268 125.4,59.6L125.4,60.8C125.4,61.131 125.131,61.4 124.8,61.4L123.6,61.4C123.268,61.4 123,61.668 123,62C123,62.331 123.268,62.6 123.6,62.6L124.8,62.6C125.131,62.6 125.4,62.868 125.4,63.2L125.4,64.4C125.4,64.731 125.668,65 126,65C126.331,65 126.6,64.731 126.6,64.4L126.6,63.2C126.6,62.868 126.868,62.6 127.2,62.6L128.4,62.6C128.731,62.6 129,62.331 129,62C129,61.668 128.731,61.4 128.4,61.4Z" style="fill:rgb(128,188,255);"/>
                                </g>
                                <g transform="matrix(1,0,0,1,0,-10)">
                                    <path d="M142.4,67.4L141.2,67.4C140.868,67.4 140.6,67.131 140.6,66.8L140.6,65.6C140.6,65.268 140.331,65 140,65C139.668,65 139.4,65.268 139.4,65.6L139.4,66.8C139.4,67.131 139.131,67.4 138.8,67.4L137.6,67.4C137.268,67.4 137,67.668 137,68C137,68.331 137.268,68.6 137.6,68.6L138.8,68.6C139.131,68.6 139.4,68.868 139.4,69.2L139.4,70.4C139.4,70.731 139.668,71 140,71C140.331,71 140.6,70.731 140.6,70.4L140.6,69.2C140.6,68.868 140.868,68.6 141.2,68.6L142.4,68.6C142.731,68.6 143,68.331 143,68C143,67.668 142.731,67.4 142.4,67.4Z" style="fill:rgb(128,188,255);"/>
                                </g>
                                <g transform="matrix(1,0,0,1,0,26)">
                                    <path d="M140.4,49.4L139.2,49.4C138.868,49.4 138.6,49.131 138.6,48.8L138.6,47.6C138.6,47.268 138.331,47 138,47C137.668,47 137.4,47.268 137.4,47.6L137.4,48.8C137.4,49.131 137.131,49.4 136.8,49.4L135.6,49.4C135.268,49.4 135,49.668 135,50C135,50.331 135.268,50.6 135.6,50.6L136.8,50.6C137.131,50.6 137.4,50.868 137.4,51.2L137.4,52.4C137.4,52.731 137.668,53 138,53C138.331,53 138.6,52.731 138.6,52.4L138.6,51.2C138.6,50.868 138.868,50.6 139.2,50.6L140.4,50.6C140.731,50.6 141,50.331 141,50C141,49.668 140.731,49.4 140.4,49.4Z" style="fill:rgb(128,188,255);"/>
                                </g>
                            </g>
                        </g>
                    </g>
                </g>
            </g>
        </g>
    </g>
</svg>
