<?xml version="1.0" encoding="UTF-8"?>
<svg width="22px" height="22px" viewBox="0 0 22 22" version="1.1" xmlns="http://www.w3.org/2000/svg" xmlns:xlink="http://www.w3.org/1999/xlink">
    <!-- Generator: Sketch 45.2 (43514) - http://www.bohemiancoding.com/sketch -->
    <title>用户</title>
    <desc>Created with Sketch.</desc>
    <defs></defs>
    <g id="Symbols" stroke="none" stroke-width="1" fill="none" fill-rule="evenodd">
        <g id="主导航／任务管理" transform="translate(-1199.000000, -21.000000)" fill="#3d3d3d">
            <g id="Group-3" transform="translate(1199.000000, 21.000000)">
                <g id="Group-2">
                    <g id="用户">
                        <g id="Group">
                            <path d="M12.7519638,12.4105974 C12.6740551,12.3852051 12.1821228,12.1631397 12.4895344,11.2276085 L12.4852866,11.2276085 C13.2864229,10.4016351 13.8987908,9.07177421 13.8987908,7.76302848 C13.8987908,5.75030526 12.5617467,4.69560495 11.008164,4.69560495 C9.45364831,4.69560495 8.12421583,5.75032984 8.12421583,7.76302848 C8.12421583,9.07708373 8.73321986,10.4122541 9.53916865,11.2362118 C9.85325884,12.0612265 9.29152059,12.3674576 9.1739823,12.4105974 C7.5467878,12.9996338 5.63803667,14.0734581 5.63803667,15.133468 L5.63803667,15.5306244 C5.63803667,16.9748856 8.43494219,17.3031905 11.0234364,17.3031905 C13.6157609,17.3031905 16.3772847,16.9748856 16.3772847,15.5306244 L16.3772847,15.133468 C16.3772601,14.0414044 14.4589822,12.9762571 12.7519638,12.4105974 L12.7519638,12.4105974 L12.7519638,12.4105974 Z" id="Shape"></path>
                            <path d="M11.0075747,21.9974389 C4.94984715,21.9974389 0.0218818237,17.0639674 0.0218818237,10.999324 C0.0218818237,4.93482799 4.94984715,0.00135655196 11.0075747,0.00135655196 C17.0654742,0.00135655196 21.993415,4.93482799 21.993415,10.999324 C21.993415,17.063992 17.0654496,21.9974389 11.0075747,21.9974389 L11.0075747,21.9974389 L11.0075747,21.9974389 Z M11.0075747,1.57956008 C5.81921801,1.57956008 1.59832394,5.80517023 1.59832394,10.999324 C1.59832394,16.1927895 5.81921801,20.4192354 11.0075747,20.4192354 C16.1952439,20.4192354 20.4169728,16.1927895 20.4169728,10.999324 C20.4169728,5.80519479 16.1952439,1.57956008 11.0075747,1.57956008 L11.0075747,1.57956008 L11.0075747,1.57956008 Z" id="Shape"></path>
                        </g>
                    </g>
                </g>
            </g>
        </g>
    </g>
</svg>
