<?xml version="1.0" encoding="UTF-8"?>
<svg width="40px" height="40px" viewBox="0 0 40 40" version="1.1" xmlns="http://www.w3.org/2000/svg" xmlns:xlink="http://www.w3.org/1999/xlink">
    <!-- Generator: Sketch 52.2 (67145) - http://www.bohemiancoding.com/sketch -->
    <title>分组 32</title>
    <desc>Created with Sketch.</desc>
    <g id="页面-1" stroke="none" stroke-width="1" fill="none" fill-rule="evenodd">
        <g id="分组-19" transform="translate(-43.000000, -22.000000)">
            <g id="分组-18" transform="translate(43.000000, 22.000000)">
                <g id="分组-17">
                    <g id="分组-32">
                        <rect id="矩形" fill="#5182E4" x="0" y="0" width="40" height="40" rx="20"></rect>
                        <g id="事务中心_出差" transform="translate(12.222222, 13.333333)" fill="#FFFFFF" fill-rule="nonzero">
                            <path d="M14.1277121,4.45186172 C14.6802347,3.90098784 15.1057732,3.23608393 15.3745794,2.50363158 C15.6873296,1.82927242 15.5890795,1.03571327 15.1213095,0.457989939 C14.8333903,0.159875879 14.4349669,-0.00584006744 14.0205595,0.00015585997 C12.9090357,0.106923822 11.8724198,0.607954855 11.0982143,1.41262271 L9.69548858,2.80560726 C9.65199894,2.85537945 9.58307738,2.87452433 9.52014787,2.85431301 L3.00331807,1.2957289 C2.71488392,1.2219097 2.40880405,1.3030393 2.19480256,1.51003422 L0.860264916,2.83483072 C0.683114427,3.03854842 0.598451427,3.30664791 0.626477291,3.57515816 C0.675908207,3.82376843 0.832831928,4.03775532 1.05508793,4.1596272 L5.54575839,6.62413833 C5.59621483,6.65359959 5.63166538,6.70323036 5.64316989,6.76051443 C5.64442601,6.81804523 5.62349785,6.87385365 5.584723,6.91637285 L3.85079817,8.68926227 C3.80574827,8.76138633 3.71734803,8.79353188 3.63649286,8.76719148 L2.029203,8.29961624 C1.94881603,8.28360735 1.8660612,8.28360735 1.78567423,8.29961624 C1.56311907,8.2986396 1.3493223,8.38626123 1.19146403,8.54314501 L0.217348965,9.57570699 C0.0635811451,9.7531696 -0.0134930372,9.98439214 0.00304365297,10.2186229 C0.0246923429,10.4518726 0.145271127,10.6646587 0.33424277,10.803092 L2.87668311,12.6636518 L4.82491324,15.2158332 C4.98620394,15.4131092 5.22312016,15.5333353 5.47757033,15.5470324 C5.7001255,15.548009 5.91392226,15.4603874 6.07178053,15.3035036 L7.0458956,14.3293885 C7.23750081,14.1148329 7.30719101,13.8177326 7.23097746,13.5403553 L6.77314338,11.903842 C6.74370173,11.8491028 6.74370173,11.7832405 6.77314338,11.7285013 L8.62396201,9.95561186 C8.66555771,9.91609729 8.7231267,9.89810698 8.77982043,9.9069061 C8.83745409,9.91035732 8.88912947,9.94357721 8.91619653,9.99457647 L11.3612254,14.4462823 C11.4615889,14.6699482 11.6591011,14.8351403 11.8969886,14.8943753 C11.9680136,14.9052013 12.040269,14.9052013 12.111294,14.8943753 C12.2902231,14.8930059 12.4641277,14.8350377 12.6080926,14.7287757 L13.9523714,13.7546606 C14.205095,13.551932 14.3219296,13.2240412 14.2543471,12.9071805 L12.6762807,6.02992813 C12.6445303,5.97929391 12.6445303,5.91496279 12.6762807,5.86432857 L14.1277121,4.45186172 Z M5.7210991,11.7382424 L6.23738009,13.6377668 C6.26870169,13.6920174 6.26870169,13.7588569 6.23738009,13.8131075 L5.66265221,14.3878354 C5.61885059,14.4051939 5.57007771,14.4051939 5.52627609,14.3878354 C5.47313163,14.3857563 5.42344993,14.3609155 5.38989998,14.3196474 L3.63649286,12.0597004 C3.61569405,12.0290166 3.58924744,12.00257 3.55856365,11.9817712 L1.21094633,10.1991406 C1.16747172,10.1705782 1.13892333,10.1241871 1.13301714,10.0725057 C1.13108581,10.0177481 1.15230167,9.96470846 1.19146403,9.9263884 L1.75645078,9.35166052 C1.80089924,9.33810708 1.84837841,9.33810708 1.89282688,9.35166052 L1.90256804,9.35166052 L3.85079817,9.81923575 C3.9765259,9.85038406 4.10959138,9.82161315 4.21122075,9.74130654 L7.01667215,6.90663169 C7.10822998,6.81040549 7.15121928,6.67785516 7.13356595,6.54620912 C7.11437717,6.41713375 7.03476635,6.30495487 6.91926064,6.24423346 L1.90256804,3.50697011 C1.85211159,3.47750884 1.81666105,3.42787808 1.80515653,3.370594 C1.80317082,3.30373605 1.84160086,3.24224799 1.90256804,3.21473559 L2.7597893,2.35751432 C2.81151194,2.32980571 2.87366622,2.32980571 2.92538886,2.35751432 L9.69548858,3.89661613 C9.83819922,3.93575556 9.99092192,3.89478118 10.0948758,3.78946347 L11.789836,2.09450326 C12.3772723,1.46868723 13.1677797,1.07170754 14.0205595,0.974270928 C14.1636164,0.961978165 14.3060933,1.00367873 14.4199467,1.09116473 C14.5758051,1.25676429 14.5758051,1.64641032 14.4199467,2.12372671 C14.218843,2.71954626 13.8858663,3.2622982 13.4458316,3.71153428 L11.7119068,5.45520024 C11.6270184,5.56620083 11.6015711,5.71161439 11.6437187,5.84484627 L13.2704909,12.9071805 C13.2879058,12.9770224 13.2608672,13.0504129 13.2023028,13.0922624 L12.3840462,13.715696 C12.3403164,13.7447737 12.2866998,13.7549661 12.2353508,13.7439627 C12.1840017,13.7329593 12.1392693,13.7016921 12.111294,13.6572491 L9.30584256,8.62107422 C9.24065157,8.50516296 9.12534975,8.42607813 8.99373872,8.40700407 C8.86212769,8.38793 8.72911825,8.43102769 8.63370317,8.52366271 L5.79902831,11.3291141 C5.70408558,11.442855 5.67461728,11.5975636 5.7210991,11.7382424 Z" id="形状"></path>
                        </g>
                    </g>
                </g>
            </g>
        </g>
    </g>
</svg>