<?xml version="1.0" encoding="UTF-8" standalone="no"?>
<!DOCTYPE svg PUBLIC "-//W3C//DTD SVG 1.1//EN" "http://www.w3.org/Graphics/SVG/1.1/DTD/svg11.dtd">
<svg width="100%" height="100%" viewBox="0 0 120 68" version="1.1" xmlns="http://www.w3.org/2000/svg" xmlns:xlink="http://www.w3.org/1999/xlink" xml:space="preserve" xmlns:serif="http://www.serif.com/" style="fill-rule:evenodd;clip-rule:evenodd;stroke-linejoin:round;stroke-miterlimit:1.41421;">
    <g transform="matrix(1,0,0,1,-41.0005,8.45773)">
        <g transform="matrix(1.38462,0,0,2.29888,-154.162,-157.532)">
            <g transform="matrix(0.243787,0,0,0.146833,184.284,79.5297)">
                <g transform="matrix(1,0,0,1,-177.75,-100)">
                    <path d="M231.9,111.9C232.2,111.6 232.1,111.5 232.1,111.2C231.6,111 231.2,110.9 230.6,111C226.1,109.9 223,108.5 219,106.1C221.8,102.6 224,99.4 225.5,95.2L226,94.2L227,93.7C227.4,93.4 227.7,93.1 227.7,92.7L222.6,89.3L221.4,91L217.3,91L217.3,80.9L223.8,80.9C223.5,82.6 223.1,84.5 222.1,86L222.1,86.7L222.8,86.7C224.1,85 225.4,83.9 227.4,83.1C228.1,82.8 231.7,82.6 231.5,81.9L230.8,80.7L226.2,77.3L225.2,77.3L223.7,79.5L217.2,79.5L217.2,73.2L219.1,71.7L218.9,71.2L213,70L212.8,70.2L213,75.3L213,79.4L206.9,79.4L205,78.2L202.8,77.2L202.8,79.6C203.2,85 203.3,90.6 202.8,96C202.5,99.8 202,103.5 200.8,106.6C199.7,109.5 198.2,112 195.9,114.8C195.4,115.5 195.7,115.9 196.5,115.3C201.5,111.4 205.8,105.1 206.6,95.4L206.8,93.2L206.8,92.7L208,92.7C209,97.5 210.6,102.3 213.8,106C210.5,109.6 204.6,113.7 199.7,114.8C199.3,114.9 199.3,115.6 200,115.5C205.6,114.6 211.2,111.8 216,108.7C219.2,111.4 222.6,113.6 226.2,115.7L226.9,115.7C228.4,113.6 229.1,112.5 231.9,111.9ZM207.1,91L207.1,80.9L212.9,80.9L212.9,91C213,91 207.1,91 207.1,91ZM209.6,92.7L221.2,92.7C220.4,96.5 218.6,100.6 216.1,103.6C212.9,100.4 210.7,97.2 209.6,92.7ZM190.9,115.3C193.9,116.3 196,114.4 195.5,111.7C195,108.9 193.8,106.6 194.3,103.8C195.1,99.3 196.6,94.9 197.9,90.5C199.1,86.6 200.4,82.7 201.5,78.7C201.5,78.2 201.2,78.1 200.8,78.5C197.4,86.4 194.2,94.5 190.4,102.3C189.5,103.7 188.2,103.3 186.8,103.3C185.9,103.3 186.4,104 187.4,104.2C192.8,105.1 188.1,113.8 190.9,115.3ZM154.8,109.7C154.5,110.3 154.4,110.4 153.8,110.7C151.9,110.7 149.9,110.2 148,110.2L148,110.9L148.2,110.9C150.6,112 152.2,112.6 152.8,115.5L153,116C155,115.9 156.8,115.2 158.6,114.5C159.2,113.9 159.1,113.6 159.5,112.9L159.5,91.5L178.6,91.5L178.8,91.1L177.8,89.8C176.9,89.1 176,88.3 175.1,87.6C174.6,87.2 174.1,87 173.5,86.7C172.6,87.6 171.7,88.7 170.8,89.8C159.1,89.8 147.4,89.6 135.7,89.8C134.8,89.8 134.4,91.5 135.7,91.5L154.6,91.5L154.6,109.7L154.8,109.7Z" style="fill-rule:nonzero;"/>
                    <path d="M187.5,84.2C188.3,85.4 188.8,86.2 189.1,87.2C189.3,87.9 189.4,88.7 189.7,89.5C192.1,93.1 196,89.1 194.1,85.6C192.7,84.2 189.6,83.4 187.8,83.2C186.7,83.3 186.4,83.5 187.5,84.2ZM310.4,76.3L334.2,76.3L334.2,75.3L330.1,71.7L327.4,74.6L310.4,74.6C310.2,74.6 309.6,75.1 309.6,75.5C309.6,75.9 309.9,76.3 310.4,76.3ZM291.5,85.2C296.6,81.8 301.1,77.7 305.8,73.8C306.4,73.6 307.3,73.5 307.7,73.1C305.9,71.7 304.1,70.2 302.4,69.5C300.6,74.8 294.9,80.8 291,84.8C290.6,85.2 290.9,85.8 291.5,85.2ZM336.6,87.4L332.5,83.8L330.1,86.7L306.6,86.7C306.5,86.7 306.1,87.1 306.1,87.4C306.1,87.8 306.4,88.1 306.6,88.1L323.3,88.1L323.3,109.4C323.3,109.8 323.3,110.2 323.1,110.4C321.6,111.1 317.8,110.6 316.1,110.4C315.2,110.4 315.3,110.5 315.6,111.1C318,111.4 320.5,113.3 320.5,115.7C322.1,115.7 323.8,115.2 325.4,114.7C328,113 327.2,113.8 328.1,111.1L328.1,88.1L336.6,88.1C337,88.1 337,87.7 336.6,87.4Z" style="fill-rule:nonzero;"/>
                    <path d="M302.6,114.3L302.6,89.1L308.2,83.8L309.7,83.3C308.3,81.9 306.3,80.9 304.6,79.9C301.8,85.2 296.7,92.5 290.5,97.8C290,98.3 290.2,98.5 290.7,98.5C293.4,96.7 296.1,94.6 298.7,92.7L298.7,115C298.7,115.5 298.6,115.7 299.2,115.7C300.6,115.6 302.2,115.8 302.6,114.3ZM246.9,114.8L255.9,106.6L257.6,104.9C257.8,104.7 257.6,104.5 257.4,104.7L255,105.9L249.7,108.3L249.7,96.1L257.7,96.1C257.8,96 257.9,95.8 257.9,95.6L255,92.5L254.5,92.3L254,92.5L252.3,94.4L249.6,94.4L249.6,88.1L256.6,88.1L256.6,87.6L253.7,84.7L253.2,84.5L251.3,86.7L240.6,86.7L242.1,84.8L245,80.7L257.1,80.7C257.6,80.6 257.6,80.2 257.3,79.7L254.2,76.8L252,79L245.5,79L248.6,73.7L249.8,72.7L244.3,70.1L244.1,70.8C242.8,76.7 240.4,85.2 237.3,90.4C237,90.9 237.8,91.1 238.1,90.7C238.9,89.4 239.6,88.5 240.5,87.3C240.6,87.7 240.7,88 241,88.3L245.9,88.3L245.9,94.6L238.4,94.6C237.9,94.6 237.5,95.1 237.5,95.5C237.5,95.9 238,96.3 238.4,96.3L245.9,96.3L245.9,108.9L245.4,109.9L244.4,110.9L244.4,111.2L244.7,111.4L246.8,114.5L246.9,114.8ZM137.7,87.1C138.5,87.2 139.2,87.2 140,86.4C140.9,85.6 142.1,84.2 142.3,82.9C142.4,82.1 142.5,81.3 142.4,80.1L171,80.1C170.7,82.3 169.7,84.1 168.8,86.2L168.8,86.4L169.5,86.4C170.7,85.2 172.2,84.2 173.6,83.3C175.4,82.7 177.3,82.6 178.9,82.1L178.9,81.1C177.5,80 176.1,78.9 174.8,77.7C174.1,77.1 173.8,76.8 172.9,76.5C172.2,77 171.6,77.7 171,78.4L142.2,78.4C141.6,77.5 141.4,76.7 141,75.7C140.7,75.4 140.4,75.5 140.3,75.9C139.7,79 139.2,80.1 136.7,81.9C135.9,82.5 135.3,83.4 135.3,84.7C135.2,85.7 136.7,86.9 137.7,87.1ZM278.4,113.8C278.6,113.8 278.7,113.7 278.9,113.6C280.5,111.4 281.8,111 284.5,110.7C284.7,110.5 284.8,110.4 284.5,110C278.9,108.4 275.9,105 272.6,100.8L281.3,97.7L282.7,97.7L283.5,97.4L279.6,92.8L279.4,93.3C277,95.7 274.7,97.9 272.1,100.1C270.2,96.9 269.5,94.7 268.5,91.1L274.8,91.1C274.8,91.9 274.7,92.5 275.3,93C277,92.9 278.9,92.7 279.4,91.5L279.4,75.5L280.6,74.5L280.6,74L276,71.1L274.5,73.3L262.9,73.3L259,71.4L259,108.1L258.5,110.4L257.7,111.5L257.8,111.6L259.5,115L260.2,115.7L260.4,115.5L272,106.5C274,109.2 276.1,111.5 278.4,113.8ZM262.9,74.8L274.8,74.8L274.8,81.3L262.9,81.3L262.9,74.8ZM262.9,82.8L274.8,82.8L274.8,89.3L262.9,89.3L262.9,82.8ZM262.9,109.2L262.9,91L267.5,91C268.3,96.3 269.3,101 271.9,105.8C268.9,107.2 265.9,108.3 262.9,109.2ZM193.6,75.9C193.8,77.1 193.8,77.8 194.7,78.7C195.8,79.5 197.2,79.4 198.2,78.5C199.9,76.9 199.6,74.2 197.5,73.2C195.7,72.5 193.2,72 191.2,72C190.8,72.4 190.9,72.2 191.2,72.7C192.9,73.5 193.1,74.1 193.6,75.9Z" style="fill-rule:nonzero;"/>
                    <path d="M153.1,70.7C154.4,72.4 154.4,72.7 154.6,74.8C154.7,76.7 156.2,77.7 157.5,77.6C159.5,77.5 160.5,76.1 160.5,74.3C160.5,73.6 159.6,71.8 158.4,71C156.6,69.8 155,69.3 152.9,69C152.6,69 152,69.4 152.2,69.6L153.1,70.7ZM153.8,129.8C157.9,127.9 157.3,122.3 152.3,122.3L145.8,122.3L145.8,138.1L151.9,138.1C153.4,138.1 156,137.4 156.7,135.6C157.6,133.3 156.6,130.6 153.8,129.8ZM147.8,123.8L151.9,123.8L152.9,124C155.4,125.2 154.6,128 152.4,129.1L151.4,129.3L147.8,129.3L147.8,123.8ZM151.7,136.6L147.8,136.6L147.8,130.7L151.4,130.7C154,130.7 155,132.1 155,133.9C155,135.3 153.3,136.6 151.7,136.6ZM185.8,135.6L176.6,122.3L174,122.3L174,138.1L175.9,138.1L175.9,125L185.1,138.1L187.8,138.1L187.8,122.3L185.9,122.3L185.9,135.6L185.8,135.6ZM278.9,135.6L269.7,122.3L267,122.3L267,138.1L268.9,138.1L268.9,125L278.1,138.1L280.8,138.1L280.8,122.3L278.9,122.3L278.9,135.6ZM292.2,130.8L295.6,130.8L295.6,136.1C291,137.2 285.2,136.9 285.2,130.3C285.3,122.4 292.5,123.7 297.1,124.5L296.9,122.8C289.5,120.8 282.9,123.2 283.1,130.3C283.3,139.4 291.6,138.6 297.9,137.6L297.9,129.4L292.3,129.4L292.3,130.8L292.2,130.8ZM261.9,122.3L263.8,122.3L263.8,138.1L261.9,138.1L261.9,122.3ZM308.8,129.9C312.9,128 312.3,122.4 307.3,122.4L300.8,122.4L300.8,138.2L306.9,138.2C308.4,138.2 311,137.5 311.7,135.7C312.6,133.3 311.6,130.7 308.8,129.9ZM302.7,123.8L306.8,123.8L307.8,124C310.3,125.2 309.5,128 307.3,129.1L306.3,129.3L302.7,129.3L302.7,123.8ZM306.6,136.6L302.7,136.6L302.7,130.7L306.3,130.7C308.9,130.7 309.9,132.1 309.9,133.9C310,135.3 308.2,136.6 306.6,136.6ZM321.5,122.1C316.9,122.1 313.2,125.7 313.2,130.2C313.2,134.7 316.9,138.3 321.5,138.3C326.1,138.3 329.8,134.7 329.8,130.2C329.7,125.7 326,122.1 321.5,122.1ZM321.5,136.7C317.9,136.7 314.9,133.8 314.9,130.2C314.9,126.6 317.9,123.7 321.5,123.7C325.1,123.7 328.1,126.6 328.1,130.2C328.1,133.8 325.1,136.7 321.5,136.7ZM216.2,122.1C211.6,122.1 207.9,125.7 207.9,130.2C207.9,134.7 211.6,138.3 216.2,138.3C220.8,138.3 224.5,134.7 224.5,130.2C224.5,125.7 220.8,122.1 216.2,122.1ZM216.2,136.7C212.6,136.7 209.6,133.8 209.6,130.2C209.6,126.6 212.6,123.7 216.2,123.7C219.8,123.7 222.8,126.6 222.8,130.2C222.8,133.8 219.9,136.7 216.2,136.7ZM190.4,122.3L190.4,138.1L192.6,138.1L192.6,122.3L190.4,122.3ZM201.1,122.3L198.7,122.3L192.6,129.8L199.6,138L202.3,138L195,129.5L201.1,122.3ZM226.8,138.1L229,138.1L229,130.8L235.8,130.8L235.8,129.4L229,129.4L229,124L236.5,124L236.5,122.3L226.8,122.3L226.8,138.1ZM164.3,122.3L156.8,138.1L159.2,138.1L162.1,131.6L168.4,131.6L170.8,138.1L173,138.1L166.7,122.3L164.3,122.3ZM162.6,130.1L165.3,124L168,130.1L162.6,130.1ZM256.8,135.6L247.6,122.3L245,122.3L245,138.1L246.9,138.1L246.9,125L256.1,138.1L258.8,138.1L258.8,122.3L256.9,122.3L256.9,135.6L256.8,135.6Z" style="fill-rule:nonzero;"/>
                    <path d="M75.9,148.6C100.2,148.6 120,128.8 120,104.5C120,80.2 100.2,60.4 75.9,60.4C51.6,60.4 31.8,80.2 31.8,104.5C31.8,128.8 51.6,148.6 75.9,148.6Z" style="fill:rgb(242,147,59);fill-rule:nonzero;"/>
                    <path d="M99.4,67.1C103.1,69.5 106.5,72.4 109.3,75.7C106.9,75.4 104.4,75.2 101.8,75.2C71.7,75.2 47.1,99.8 47.1,129.9C47.1,132.8 47.3,135.7 47.8,138.5C44.4,135.7 41.5,132.4 39,128.7C39.7,95.5 66.3,68.4 99.4,67.1ZM118.6,93.4C113.2,90.6 107,89.1 100.5,89.1C78.4,89.1 60.3,107.2 60.3,129.3C60.3,135.7 61.8,141.7 64.4,147.1C68,148.1 71.8,148.6 75.8,148.6L76.1,148.6C71.9,143.3 69.4,136.6 69.4,129.4C69.4,112.3 83.3,98.4 100.4,98.4C107.8,98.4 114.5,101 119.9,105.3C119.9,105 119.9,104.8 119.9,104.5C120,100.6 119.5,97 118.6,93.4ZM116.1,122.7C113.8,116.1 107.5,111.3 100.1,111.3C90.7,111.3 83.1,118.9 83.1,128.3C83.1,135.7 87.9,142.1 94.6,144.4C104,140 111.7,132.2 116.1,122.7ZM100.3,119.7C95.3,119.7 91.2,123.8 91.2,128.8C91.2,133.8 95.3,137.9 100.3,137.9C105.3,137.9 109.4,133.8 109.4,128.8C109.4,123.8 105.3,119.7 100.3,119.7Z" style="fill:rgb(254,218,101);fill-rule:nonzero;"/>
                    <path d="M75.9,60.3C79.5,60.3 83,60.7 86.4,61.6C88.9,66.9 90.4,72.7 90.4,79C90.4,101.1 72.3,119.2 50.2,119.2C44.1,119.2 38.3,117.8 33.1,115.4C32.2,111.9 31.7,108.3 31.7,104.5L31.7,104C36.8,107.8 43.2,110.1 50.1,110.1C67.2,110.1 81.1,96.2 81.1,79.1C81.1,72.1 78.8,65.6 74.8,60.4C75.2,60.3 75.6,60.3 75.9,60.3ZM35.4,87C38.2,92.7 44.1,96.6 50.9,96.6C60.4,96.6 68.2,88.8 68.2,79.3C68.2,72.5 64.3,66.7 58.6,63.8C54.7,65.5 51.2,67.7 48,70.3C48.8,70.1 49.6,70 50.4,70C55.5,70 59.7,74.2 59.7,79.3C59.7,84.4 55.5,88.6 50.4,88.6C45.3,88.6 41,84.5 41,79.4C41,78.6 41.1,77.9 41.3,77.1C38.9,80.1 36.9,83.5 35.4,87Z" style="fill:rgb(254,218,101);fill-rule:nonzero;"/>
                </g>
            </g>
        </g>
    </g>
</svg>
