<svg xmlns="http://www.w3.org/2000/svg" viewBox="0 0 291.76 71.69"><defs><style>.cls-1{fill:#303030;}.cls-2{fill:#0d3dfb;}.cls-3{fill:#fff;}</style></defs><title>资源 7</title><g id="图层_2" data-name="图层 2"><g id="_004" data-name="004"><path class="cls-1" d="M86.65,54.25h1.51a16.19,16.19,0,0,0,6.53-1.89l.9-.42-4.34-2.58a5.21,5.21,0,0,1-2.8-3.53,12.36,12.36,0,0,1-.1-1.85v-.53h-1.7V40.3h1.7v-2h3.49v2h13.54v-2h3.48v2h1.76v3.15h-1.76v1.33a4.6,4.6,0,0,1-1,3.21,30.93,30.93,0,0,1-4.91,3.15l-.83.48.85.45a23.2,23.2,0,0,0,4.5,2,13,13,0,0,0,3.41.41h.28v2.89h-2a17.06,17.06,0,0,1-5.52-.71c-.14,0-.83-.37-4.5-2.45L98.86,54l-.26.14c-.37.2-1.12.59-2.23,1.15a18.9,18.9,0,0,1-4.23,1.74,34.32,34.32,0,0,1-5.49.35Zm5.27-10.12a3.11,3.11,0,0,0,.66,1.76,10.06,10.06,0,0,0,2.66,1.86l3.55,1.93,4.66-2.9a3.47,3.47,0,0,0,1.87-2.64l.06-.58H91.87Zm41.33,12.93a23.63,23.63,0,0,1-8.94-5.65l-.35-.36-.38.34a27.22,27.22,0,0,1-4.91,3.67,39.77,39.77,0,0,1-4.62,2v-3.8a25,25,0,0,0,7.23-5l.29-.29-.2-.35a40.34,40.34,0,0,1-3.69-8.85c-.41-1.48-1.12-4.77-2.12-9.78h3.68c.81,4,1.34,6.56,1.57,7.57a46.52,46.52,0,0,0,2.53,7.32l.47,1.07.5-1a23.64,23.64,0,0,0,1.9-5.9,59.55,59.55,0,0,0,.81-8.31l.28-8.4h-8.71l-.13.34a12.72,12.72,0,0,1-2.91,4.78,9.13,9.13,0,0,1-3.69,1.78V24.42a4.57,4.57,0,0,0,2.59-2.78,63.85,63.85,0,0,0,2-7.25h3.81l-.77,3.13h13.78v3.72h-2.09l-.39,8.59a56.16,56.16,0,0,1-1.4,10.46,29.65,29.65,0,0,1-3,7.56l-.19.34.26.28a22.25,22.25,0,0,0,6.76,4.76ZM87.71,32.48a1.71,1.71,0,0,0,1.13-1.72V29.19h3.75v1.57a5.37,5.37,0,0,1-1.37,3.7,5.3,5.3,0,0,1-3.51,1.79Zm22.44,3.74a5.34,5.34,0,0,1-3.42-1.64,5.49,5.49,0,0,1-1.51-4V29.22h3.69v1.59a1.66,1.66,0,0,0,1.24,1.7ZM97,35.94v-10H86.65V22.17H97V14.55h3.72v7.62h9.15v3.72h-9.15v10ZM87.71,18.6l0-4h3.68v4Zm18.65-.1,0-3.95h3.7V18.5Z"/><path class="cls-1" d="M166.06,57.25A5.77,5.77,0,0,1,163,56.17c-1.7-1.1-2.53-3-2.53-5.78V30.5a7.35,7.35,0,0,1,.87-4,6.4,6.4,0,0,1,2.94-2.41,9,9,0,0,1,3-.4h.52v-5.6h-7.36V14.37h25.45v3.72h-7.78v5.59h.52a11.21,11.21,0,0,1,3.56.51c2.49,1,3.7,3.16,3.7,6.63l0,20a6.18,6.18,0,0,1-1.8,4.63,6.06,6.06,0,0,1-4.49,1.79Zm5-22a15.89,15.89,0,0,1-1.47,7.25,10,10,0,0,1-2.52,3.22,29.7,29.7,0,0,1-2.66,1.87l-.24.16,0,2a3.84,3.84,0,0,0,.92,2.82,3.44,3.44,0,0,0,2.53.89H178.1a4.31,4.31,0,0,0,3.17-1.05,3.58,3.58,0,0,0,.92-2.66l0-2h-3.24A3.78,3.78,0,0,1,176,46.64a3.88,3.88,0,0,1-1.12-2.79V27.41h-3.82Zm7,6.74a1.84,1.84,0,0,0,2,2h2V31.64a4.31,4.31,0,0,0-1.25-3.46,4,4,0,0,0-2.24-.77l-.57,0Zm-10.9-14.57a3.31,3.31,0,0,0-3,3.57V43.56l.9-.88a8.55,8.55,0,0,0,2.09-2.87,13.14,13.14,0,0,0,.65-4.48v-8Zm3.87-3.78h3.82v-5.6h-3.82ZM153.73,57.06V25.22h3V57.06Zm-6.9,0V21.65H139.7V17.93h7.13V14.29h3.72v3.64H157v3.72h-6.46V57.06Zm-7.62-3.61a1.15,1.15,0,0,0,.67-.51,4.21,4.21,0,0,0,.42-2.08l.35-25.54H144l-.35,26.87a4.63,4.63,0,0,1-1.73,3.58,4.92,4.92,0,0,1-2.72,1.09Z"/><path class="cls-1" d="M213.94,57.25V44.12H192.39V40.33h21.55V18H192.39V14.29h46.83V18H217.66V40.33h21.56v3.79H217.66V57.25Zm-9.56-20.16a8.45,8.45,0,0,1-5.09-2.39,8.32,8.32,0,0,1-2.12-5l-.89-8.22H200l.64,6c.26,2.45.71,4,1.38,4.72a3.93,3.93,0,0,0,2.34,1.14Zm22.86-3.77A4.14,4.14,0,0,0,229.76,32,8.34,8.34,0,0,0,231,28l.7-6.5h3.74l-.76,7.11a14.55,14.55,0,0,1-.91,4.2,7.26,7.26,0,0,1-3.58,3.52,8.23,8.23,0,0,1-2.9.74Z"/><path class="cls-1" d="M251.12,57.25c-2.14,0-3.64-.6-4.48-1.77-.22-.33-.5-1.19-.5-3.36V42.23c0-3.13,1.54-4.59,4.85-4.59h34.87a6.48,6.48,0,0,1,4.08,1A3.26,3.26,0,0,1,291,40.23a8.32,8.32,0,0,1,.16,2V53a4.3,4.3,0,0,1-.73,2.76,3.65,3.65,0,0,1-2,1.32,8.39,8.39,0,0,1-2.09.17Zm.75-15.81a1.79,1.79,0,0,0-2,1.92v8.27c0,.54.22,1.82,2.21,1.82h33.27a2.1,2.1,0,0,0,1.79-.73,2.63,2.63,0,0,0,.34-1.56V43.47a1.86,1.86,0,0,0-2.05-2Zm.33-8.91c-2.49,0-4.23-.34-5.17-1a3.72,3.72,0,0,1-1.63-3.24,10.11,10.11,0,0,1,.66-3.21l3.83-10.6h4.49l-4.07,10.81a3.87,3.87,0,0,0-.26,1.37c0,.78.37,2.08,2.88,2.08H284.2c2.94,0,3.56-1.55,3.56-2.85a3.6,3.6,0,0,0-.21-1.15l-1.77-5.48h3.79c.26.82.61,2,1.05,3.49a19.45,19.45,0,0,1,1.14,4.61c0,1.66-.87,3-2.66,4.06a12.12,12.12,0,0,1-5.93,1.12Z"/><path class="cls-2" d="M35.84,17A18.85,18.85,0,1,1,17,35.84,18.86,18.86,0,0,1,35.84,17m0-17A35.85,35.85,0,1,0,71.69,35.84,35.84,35.84,0,0,0,35.84,0Z"/><path class="cls-3" d="M35.84,61.61a25.74,25.74,0,0,1-7.26-1,1.5,1.5,0,0,1,.84-2.87,22.84,22.84,0,0,0,17.82-2.13,1.49,1.49,0,1,1,1.5,2.58A25.76,25.76,0,0,1,35.84,61.61ZM23.72,58.37a1.52,1.52,0,0,1-.74-.2A25.91,25.91,0,0,1,10.8,41.92a1.49,1.49,0,1,1,2.9-.7A22.88,22.88,0,0,0,24.47,55.58a1.49,1.49,0,0,1-.75,2.79Zm28.86-3.46a1.49,1.49,0,0,1-1-2.57,22.57,22.57,0,0,0,7.07-16.5v-.05a1.5,1.5,0,0,1,3,0v0a25.54,25.54,0,0,1-8,18.67A1.47,1.47,0,0,1,52.58,54.91Zm-41-17.55a1.49,1.49,0,0,1-1.5-1.49v0a25.55,25.55,0,0,1,8-18.63,1.49,1.49,0,1,1,2.06,2.16,22.56,22.56,0,0,0-7,16.47v0A1.49,1.49,0,0,1,11.58,37.36Zm47.85-5.77A1.49,1.49,0,0,1,58,30.45,22.89,22.89,0,0,0,47.2,16.09a1.49,1.49,0,1,1,1.49-2.58A25.89,25.89,0,0,1,60.88,29.74a1.51,1.51,0,0,1-1.1,1.81A2.21,2.21,0,0,1,59.43,31.59ZM23.68,16.33a1.46,1.46,0,0,1-1.29-.74,1.48,1.48,0,0,1,.54-2,25.82,25.82,0,0,1,20.15-2.44,1.51,1.51,0,0,1,1,1.86,1.49,1.49,0,0,1-1.85,1,22.88,22.88,0,0,0-17.82,2.15A1.48,1.48,0,0,1,23.68,16.33Z"/><path class="cls-3" d="M35.86,67.59a31.88,31.88,0,0,1-9.13-1.34l-1-.34a1.49,1.49,0,1,1,.95-2.82l.95.3a28.64,28.64,0,0,0,19-.87,1.49,1.49,0,1,1,1.11,2.76A31.53,31.53,0,0,1,35.86,67.59ZM21,63.67a1.54,1.54,0,0,1-.74-.19A31.8,31.8,0,0,1,6,46.65a1.49,1.49,0,1,1,2.8-1,28.85,28.85,0,0,0,12.9,15.25,1.48,1.48,0,0,1,.56,2A1.46,1.46,0,0,1,21,63.67Zm31.28-.9A1.52,1.52,0,0,1,51,62.08,1.5,1.5,0,0,1,51.42,60a28.78,28.78,0,0,0,12-16l0-.09a1.49,1.49,0,1,1,2.86.85l0,.09A31.8,31.8,0,0,1,53,62.53,1.49,1.49,0,0,1,52.23,62.77ZM5.94,42.11a1.49,1.49,0,0,1-1.47-1.25,32.6,32.6,0,0,1-.4-5A31.83,31.83,0,0,1,8.74,19.24a1.49,1.49,0,1,1,2.54,1.55,29.09,29.09,0,0,0-4.23,15,27.78,27.78,0,0,0,.37,4.56,1.49,1.49,0,0,1-1.24,1.71Zm60-1.82h-.15a1.48,1.48,0,0,1-1.33-1.63c.09-.94.14-1.9.14-2.85a28.72,28.72,0,0,0-5.19-16.47,1.49,1.49,0,1,1,2.44-1.7A31.58,31.58,0,0,1,67.62,35.8,30.21,30.21,0,0,1,67.46,39,1.49,1.49,0,0,1,66,40.29ZM13.44,16.93a1.51,1.51,0,0,1-1-.39,1.49,1.49,0,0,1-.1-2.1A31.84,31.84,0,0,1,31.89,4.29a1.49,1.49,0,1,1,.37,3,28.88,28.88,0,0,0-17.72,9.21A1.5,1.5,0,0,1,13.44,16.93ZM57,15.61a1.48,1.48,0,0,1-1-.42A29,29,0,0,0,37.69,7.08a1.49,1.49,0,0,1,.19-3A32.31,32.31,0,0,1,45,5.38,31.81,31.81,0,0,1,58,13.06a1.49,1.49,0,0,1-1,2.55Z"/></g></g></svg>