<svg id="图层_1" data-name="图层 1" xmlns="http://www.w3.org/2000/svg" viewBox="0 0 40 40"><defs><style>.cls-1{fill-rule:evenodd;fill:rgba(255,255,255,0.8);}</style></defs><title>侧边导航展开</title><path class="cls-1" d="M34.42,26.15a1.52,1.52,0,0,1-2.16,0,1.52,1.52,0,0,1,0-2.16l4.06-4-4-3.75A1.53,1.53,0,0,1,34.44,14l5.14,4.84a1.53,1.53,0,0,1,.48,1.1,1.49,1.49,0,0,1-.46,1.11Z"/><path class="cls-1" d="M38.54,6.8H1.34a1.4,1.4,0,0,1,0-2.8h37.2a1.4,1.4,0,0,1,0,2.8Z"/><path class="cls-1" d="M1.43,33.19H38.62a1.41,1.41,0,0,1,0,2.81H1.43a1.41,1.41,0,1,1,0-2.81Z"/><rect class="cls-1" x="-0.06" y="18.6" width="29.06" height="2.8" rx="1.26" ry="1.26"/></svg>